<?xml version="1.0" encoding="UTF-8"?>
<!DOCTYPE svg PUBLIC "-//W3C//DTD SVG 1.1//EN" "http://www.w3.org/Graphics/SVG/1.1/DTD/svg11.dtd">
<!-- Creator: CorelDRAW 2020 (64 Bit) -->
<svg xmlns="http://www.w3.org/2000/svg" xml:space="preserve" width="60mm" height="60mm" version="1.1" shape-rendering="geometricPrecision" text-rendering="geometricPrecision" image-rendering="optimizeQuality" fill-rule="evenodd" clip-rule="evenodd"
viewBox="0 0 6000 6000"
 xmlns:xlink="http://www.w3.org/1999/xlink"
 xmlns:xodm="http://www.corel.com/coreldraw/odm/2003">
 <g id="Camada_x0020_1">
  <metadata id="CorelCorpID_0Corel-Layer"/>
  <path fill="#96989A" d="M1206.95 4672.31l415.18 -1995.48 3491.67 -5.28 -375.94 1815.73c-67.86,259.12 -288.7,184.32 -568.81,184.32 -985.94,-0.01 -1976.77,-9.71 -2962.1,0.71zm-375.99 -3100.11c0,-184.8 53.3,-232.48 234.22,-232.48l971.44 0c93.47,0 113.28,92.55 183.06,167.7 64.65,69.62 107.83,120.23 164.99,190.17 145.97,178.65 204.65,308.06 374.61,308.06l2025.81 0c303,0 243.53,-296.94 63.71,-327.67l-2068.35 -2.87c-94.47,-148.8 -179.96,-235.06 -300.07,-380.12 -199.14,-240.51 -164.48,-287.89 -372.68,-287.89l-1042.52 0c-363.64,0 -570.85,199.31 -570.85,565.1l0 2866.93c0,348.19 199.89,565.1 547.16,565.1l3435.58 0c338.23,0 504.13,-117.34 577.09,-416.64l345.02 -1598.28c57.38,-260.12 233.1,-648.9 -116.52,-648.9l-3743.6 0c-245.44,0 -237.82,249.92 -281.2,468.41 -54.82,276.06 -354.85,1726.56 -407.53,1794.89 -46.01,-390.92 -19.37,-2477 -19.37,-3031.51z"/>
 </g>
</svg>
