<?xml version="1.0" encoding="UTF-8"?>
<!DOCTYPE svg PUBLIC "-//W3C//DTD SVG 1.1//EN" "http://www.w3.org/Graphics/SVG/1.1/DTD/svg11.dtd">
<!-- Creator: CorelDRAW 2020 (64 Bit) -->
<svg xmlns="http://www.w3.org/2000/svg" xml:space="preserve" width="100mm" height="85mm" version="1.1" shape-rendering="geometricPrecision" text-rendering="geometricPrecision" image-rendering="optimizeQuality" fill-rule="evenodd" clip-rule="evenodd"
viewBox="0 0 10000 8500"
 xmlns:xlink="http://www.w3.org/1999/xlink"
 xmlns:xodm="http://www.corel.com/coreldraw/odm/2003">
 <g id="Camada_x0020_1">
  <metadata id="CorelCorpID_0Corel-Layer"/>
  <g id="_2895452264592">
   <g id="_1866715259792">
    <path fill="#ED3237" d="M3208.23 3968.22l415.18 -1995.48 3491.67 -5.28 -375.94 1815.73c-67.86,259.12 -288.7,184.32 -568.81,184.32 -985.94,-0.01 -1976.77,-9.71 -2962.1,0.71zm-375.99 -3100.11c0,-184.8 53.3,-232.48 234.22,-232.48l971.44 0c93.47,0 113.28,92.55 183.06,167.7 64.65,69.62 107.83,120.23 164.99,190.17 145.97,178.65 204.65,308.06 374.61,308.06l2025.81 0c303,0 243.53,-296.94 63.71,-327.67l-2068.35 -2.87c-94.47,-148.8 -179.96,-235.06 -300.07,-380.12 -199.14,-240.51 -164.48,-287.89 -372.68,-287.89l-1042.52 0c-363.64,0 -570.85,199.31 -570.85,565.1l0 2866.93c0,348.19 199.89,565.1 547.16,565.1l3435.58 0c338.23,0 504.13,-117.34 577.09,-416.64l345.02 -1598.28c57.38,-260.12 233.1,-648.9 -116.52,-648.9l-3743.6 0c-245.44,0 -237.82,249.92 -281.2,468.41 -54.82,276.06 -354.85,1726.56 -407.53,1794.89 -46.01,-390.92 -19.37,-2477 -19.37,-3031.51z"/>
    <path fill="#ED3237" fill-rule="nonzero" d="M1367.32 6987.74l-2.98 0 -160.62 535.4c-5.95,19.83 -17.35,32.72 -34.2,38.67 -16.86,5.94 -33.71,5.94 -50.57,0 -16.85,-5.95 -31.23,-16.36 -43.13,-31.24 -11.9,-14.87 -14.87,-33.21 -8.92,-55.02l523.5 -1707.32c5.95,-21.81 16.85,-37.18 32.72,-46.1 15.86,-8.93 32.22,-12.89 49.07,-11.9 16.86,0.99 32.72,6.94 47.59,17.85 14.88,10.9 25.29,25.28 31.24,43.12l562.16 1692.45c7.93,21.81 6.45,40.15 -4.46,55.03 -10.91,14.87 -25.28,25.28 -43.13,31.23 -17.85,5.95 -35.69,5.95 -53.54,0 -17.85,-5.95 -30.74,-18.84 -38.67,-38.67l-178.46 -550.27 -5.95 0 -621.65 26.77zm38.66 -136.82l547.3 -20.82 -279.6 -865.56 -267.7 886.38zm1091.61 -353.96c0,-25.78 7.44,-44.61 21.81,-56.51 14.38,-11.9 31.23,-17.85 49.58,-17.85 18.34,0 35.19,5.95 49.57,17.85 14.38,11.9 21.81,30.73 21.81,56.51l0 136.83c31.73,-29.75 67.92,-53.05 108.57,-69.9 40.65,-16.86 81.8,-25.29 123.44,-25.29 41.64,0 82.79,9.92 123.44,29.75 40.65,19.83 75.84,50.56 105.59,92.21 13.88,21.81 19.83,42.63 17.84,62.46 -1.98,19.83 -8.92,35.2 -20.82,46.1 -11.89,10.91 -27.26,15.37 -46.1,13.39 -18.84,-1.99 -37.18,-13.88 -55.03,-35.7 -43.62,-55.52 -96.17,-79.81 -157.64,-72.87 -61.47,6.94 -111.05,45.11 -148.72,114.52 -15.87,33.71 -27.27,73.36 -34.21,118.97 -6.94,45.61 -11.4,94.19 -13.38,145.75l2.97 407.49c0,21.82 -7.93,37.68 -23.3,47.6 -15.86,9.91 -32.22,14.87 -49.57,14.87 -17.35,0 -34.21,-4.96 -49.57,-14.87 -15.37,-9.92 -23.3,-25.78 -23.3,-47.6l-2.98 -963.71zm1522.91 5.95c1.98,-25.78 9.91,-45.11 23.3,-58 13.38,-12.89 28.75,-19.33 45.11,-19.33 16.36,0 31.73,6.44 45.11,19.33 13.38,12.89 21.32,32.22 23.3,58 0,99.15 -0.5,186.4 -1.49,261.25 -0.99,75.36 -1.98,144.26 -2.97,207.72 -0.99,62.96 -1.49,123.44 -1.49,180.45 0,57.5 0,115.5 0,174.99 0,93.2 0.99,188.38 2.98,285.55 1.98,97.16 12.88,193.33 32.71,288.51 11.9,49.58 29.75,88.25 53.54,116.01 23.8,27.76 50.57,43.62 80.31,47.59 29.75,3.96 59.99,-4.46 90.72,-25.28 30.74,-20.83 58,-54.04 81.8,-99.65 13.88,-27.76 30.24,-45.11 49.08,-52.05 18.83,-6.94 35.19,-6.44 49.07,1.49 13.89,7.93 23.8,21.31 29.75,40.15 5.95,18.84 3.96,40.16 -5.95,63.95 -27.76,57.51 -65.44,104.11 -113.03,139.8 -47.59,35.69 -97.66,56.51 -150.21,62.46 -52.54,5.95 -103.11,-3.96 -151.2,-29.74 -48.58,-25.78 -87.25,-70.4 -116.49,-133.85 -19.34,-37.68 -34.21,-83.78 -43.63,-138.31 -9.91,-54.53 -16.36,-112.04 -20.32,-172.52 -3.97,-60.48 -5.95,-122.94 -5.95,-187.39 0,-64.44 0,-126.41 0,-185.9 -39.66,36.19 -85.77,66.43 -138.31,89.73 -52.55,23.3 -111.54,34.7 -176.98,34.7 -75.35,0 -141.78,-13.38 -199.29,-40.15 -57.5,-26.77 -105.09,-62.46 -142.77,-107.08 -37.68,-44.62 -65.44,-95.68 -83.28,-153.18 -17.85,-57.51 -26.77,-116.01 -26.77,-175.49 0,-57.51 9.42,-113.53 28.25,-168.06 18.84,-54.53 46.6,-103.61 83.29,-147.23 36.68,-43.63 82.79,-78.83 138.31,-105.6 55.52,-26.76 119.97,-40.15 193.34,-40.15 73.36,-1.98 136.82,8.43 190.36,31.23 53.04,22.81 99.64,54.04 139.3,93.7l0.5 -157.65zm-331.65 172.52c-50.07,0 -93.2,8.92 -129.88,26.77 -37.18,17.84 -67.92,41.64 -92.71,72.38 -24.78,30.73 -43.62,64.94 -55.52,103.6 -11.9,38.67 -17.85,78.33 -17.85,119.97 0,41.64 6.45,82.29 19.34,122.95 12.89,40.15 33.21,75.84 59.98,106.58 26.77,30.73 58.99,54.53 97.17,72.38 37.67,17.84 82.78,26.77 134.34,26.77 50.07,-1.99 93.69,-12.89 131.37,-32.72 38.17,-19.83 69.4,-44.62 94.19,-75.35 25.28,-30.74 44.12,-64.95 57.01,-103.61 12.89,-38.67 19.33,-78.33 19.33,-119.97 -3.96,-80.81 -32.22,-153.68 -85.26,-217.63 -52.55,-63.95 -129.89,-98.16 -231.51,-102.12zm1619.57 -139.8c1.98,93.2 3.47,168.55 4.46,226.06 0.99,57.5 1.98,105.59 2.97,144.26 0.99,38.66 1.49,73.36 1.49,104.1 0,30.74 0,64.94 0,102.62 0,37.67 0.49,83.78 1.49,138.31 0.99,54.53 1.48,126.41 1.48,215.64 0,23.8 -7.93,41.65 -23.79,53.54 -15.87,11.9 -33.22,17.85 -52.05,17.85 -18.84,0 -36.19,-5.45 -52.06,-16.36 -15.86,-10.91 -23.79,-27.27 -23.79,-49.08l0 -151.69c-35.7,55.52 -80.31,99.14 -133.85,130.87 -53.54,31.73 -118.98,47.59 -196.31,47.59 -67.42,1.99 -124.93,-10.41 -172.52,-37.18 -47.59,-26.77 -86.26,-63.45 -116,-110.05 -29.75,-46.6 -52.55,-101.13 -68.41,-163.59 -15.87,-62.47 -27.76,-128.9 -35.7,-199.29 -7.93,-70.4 -12.39,-142.28 -13.38,-215.65 -0.99,-73.37 -1.49,-144.75 -1.49,-214.15 0,-21.82 7.44,-38.67 22.31,-50.57 14.87,-11.9 31.23,-18.34 49.08,-19.33 17.84,-0.99 34.7,3.96 50.56,14.87 15.87,10.91 23.8,28.26 23.8,52.05 1.98,87.25 3.96,177.97 5.95,272.16 1.98,94.19 10.41,181.44 25.28,261.75 14.87,80.31 40.65,146.24 77.33,197.8 36.69,51.56 90.72,77.33 162.11,77.33 111.05,0 190.36,-60.48 237.95,-181.44 47.59,-120.96 72.38,-291.49 74.36,-511.6l0 -124.92c0,-21.81 7.44,-38.67 22.31,-50.57 14.87,-11.89 31.23,-18.84 49.08,-20.82 17.85,-1.98 34.7,1.98 50.57,11.9 15.86,9.91 24.78,25.78 26.77,47.59zm339.08 -321.24c0,-21.81 6.94,-39.66 20.82,-53.54 13.88,-13.88 30.73,-20.82 50.56,-20.82 21.81,0 39.66,6.94 53.54,20.82 13.88,13.88 20.82,31.73 20.82,53.54 0,19.83 -6.94,36.69 -20.82,50.57 -13.88,13.88 -31.73,20.82 -53.54,20.82 -19.83,0 -36.68,-6.94 -50.56,-20.82 -13.88,-13.88 -20.82,-30.74 -20.82,-50.57zm0 300.42c0,-25.78 7.93,-44.62 23.79,-56.51 15.86,-11.9 33.21,-17.85 52.05,-17.85 18.84,0 36.19,5.95 52.06,17.85 15.86,11.89 23.79,30.73 23.79,56.51 0,89.23 0.5,173.51 1.49,252.83 0.99,79.31 2.48,157.64 4.46,234.97 1.98,77.34 3.47,155.67 4.46,234.98 0.99,79.32 1.49,163.6 1.49,252.83 0,21.81 -7.93,38.17 -23.8,49.08 -15.86,10.9 -33.71,16.36 -53.54,16.36 -19.83,0 -37.67,-5.46 -53.54,-16.36 -15.86,-10.91 -23.79,-27.27 -23.79,-49.08 0,-89.23 -0.5,-173.51 -1.49,-252.83 -0.99,-79.31 -1.98,-157.64 -2.97,-234.98 -0.99,-77.33 -1.99,-155.66 -2.98,-234.97 -0.99,-79.32 -1.48,-163.6 -1.48,-252.83zm410.46 74.36c-11.9,-27.76 -12.89,-51.06 -2.97,-69.9 9.91,-18.84 23.79,-31.23 41.64,-37.18 17.85,-5.95 36.19,-4.96 55.03,2.98 18.83,7.93 33.21,24.78 43.12,50.56l297.45 803.09 246.87 -779.29c9.92,-31.73 24.29,-52.55 43.13,-62.47 18.84,-9.91 37.18,-11.4 55.03,-4.46 17.85,6.94 31.73,20.33 41.64,40.16 9.92,19.83 10.91,42.63 2.98,68.41l-285.55 841.76c-5.95,17.84 -18.34,32.22 -37.18,43.13 -18.84,10.9 -40.15,17.84 -63.95,20.82 -23.79,2.97 -46.1,0.99 -66.92,-5.95 -20.82,-6.94 -35.2,-21.32 -43.13,-43.13l-327.19 -868.53zm1447.05 877.45c-79.31,1.99 -148.22,-9.91 -207.71,-35.69 -58.99,-25.78 -108.07,-61.47 -146.74,-106.09 -38.17,-44.61 -66.43,-95.67 -84.27,-152.19 -17.85,-56.51 -26.77,-115.01 -26.77,-174.5 0,-59.49 9.91,-117.49 29.74,-173.01 19.83,-55.52 49.08,-105.59 87.25,-149.22 38.67,-43.62 86.26,-79.31 142.28,-106.08 56.51,-26.77 122.44,-41.15 197.3,-43.13 75.35,0 141.29,13.38 198.79,40.15 57.01,26.77 104.6,62.96 142.28,107.58 37.67,44.61 64.94,96.17 82.79,153.67 17.84,57.51 26.77,116.5 26.77,175.99 0,57.51 -9.42,114.02 -28.26,168.55 -18.84,54.53 -46.11,104.11 -82.79,147.73 -36.68,43.63 -82.79,79.32 -137.81,106.09 -55.53,26.77 -119.97,40.15 -192.85,40.15zm1.49 -139.79c49.57,0 92.7,-8.93 129.39,-26.77 36.68,-17.85 67.42,-42.14 92.21,-72.88 24.78,-30.73 43.12,-65.93 55.02,-105.59 11.9,-39.66 17.85,-80.31 17.85,-121.95 0,-41.64 -6.45,-82.29 -19.34,-121.95 -12.88,-39.66 -32.71,-74.86 -59.48,-105.59 -26.77,-30.74 -59.49,-55.03 -98.16,-72.88 -38.67,-17.84 -82.79,-26.77 -132.36,-26.77 -49.57,1.99 -93.2,12.89 -130.88,32.72 -37.67,19.83 -68.9,45.11 -93.69,75.85 -24.79,30.74 -43.62,65.44 -56.51,104.1 -12.89,38.67 -19.34,78.83 -19.34,120.47 1.99,81.3 29.75,154.17 83.29,218.62 53.54,64.44 130.87,98.65 232,102.62zm755.51 -38.67c29.74,29.74 73.37,53.04 130.87,69.9 57.51,16.85 115.01,24.29 172.52,22.31 57.5,-1.99 108.07,-13.89 151.69,-35.7 43.63,-21.81 65.44,-56.51 65.44,-104.1 0,-43.63 -14.38,-77.34 -43.13,-101.13 -28.75,-23.8 -64.94,-43.13 -108.56,-58 -43.63,-14.88 -91.22,-27.76 -142.78,-38.67 -51.55,-10.91 -99.64,-25.28 -144.26,-43.13 -44.61,-17.85 -83.28,-41.64 -116,-71.39 -32.72,-29.74 -51.06,-71.38 -55.03,-124.92 -3.96,-55.52 3.97,-104.11 23.8,-145.75 19.83,-41.64 47.09,-76.84 81.8,-105.59 34.7,-28.75 74.36,-50.57 118.97,-65.44 44.62,-14.87 90.72,-24.29 138.31,-28.25 67.42,-3.97 130.88,7.43 190.37,34.2 59.48,26.77 105.09,62.96 136.82,108.57 11.9,17.84 15.86,35.19 11.9,52.05 -3.97,16.85 -12.4,30.24 -25.28,40.15 -12.89,9.92 -28.26,13.89 -46.11,11.9 -17.85,-1.98 -34.7,-11.9 -50.56,-29.74 -25.78,-27.76 -59.49,-49.08 -101.13,-63.95 -41.65,-14.87 -84.28,-20.33 -127.9,-16.36 -55.53,5.95 -104.11,23.3 -145.75,52.05 -41.64,28.75 -61.47,68.91 -59.49,120.47 0,33.71 15.37,58.99 46.1,75.84 31.24,16.86 69.9,32.23 117,46.11 46.6,13.88 96.67,27.76 149.22,41.64 53.04,13.88 101.62,33.21 146.73,58 44.62,24.79 81.3,57.5 110.55,98.16 28.76,40.65 42.14,94.68 40.16,162.1 -1.99,53.54 -18.35,99.15 -49.08,136.82 -31.23,37.68 -69.9,67.42 -116.5,89.24 -47.09,21.81 -99.15,36.68 -157.15,44.61 -57.5,7.94 -114.51,8.93 -171.52,2.98 -56.52,-5.95 -109.56,-18.34 -158.14,-37.18 -48.58,-18.84 -88.24,-44.12 -117.99,-75.85 -17.84,-17.85 -25.78,-37.68 -23.79,-59.49 1.98,-21.81 9.42,-40.15 22.31,-55.03 12.88,-14.87 29.24,-23.79 49.07,-26.77 19.83,-2.97 38.67,3.47 56.52,19.34z"/>
   </g>
  </g>
 </g>
</svg>
