<?xml version="1.0" encoding="UTF-8"?>
<!DOCTYPE svg PUBLIC "-//W3C//DTD SVG 1.1//EN" "http://www.w3.org/Graphics/SVG/1.1/DTD/svg11.dtd">
<!-- Creator: CorelDRAW 2020 (64 Bit) -->
<svg xmlns="http://www.w3.org/2000/svg" xml:space="preserve" width="100mm" height="90mm" version="1.1" shape-rendering="geometricPrecision" text-rendering="geometricPrecision" image-rendering="optimizeQuality" fill-rule="evenodd" clip-rule="evenodd"
viewBox="0 0 10000 9000"
 xmlns:xlink="http://www.w3.org/1999/xlink"
 xmlns:xodm="http://www.corel.com/coreldraw/odm/2003">
 <g id="Camada_x0020_1">
  <metadata id="CorelCorpID_0Corel-Layer"/>
  <g id="_1471135758944">
   <path fill="#96989A" d="M2840.56 930.16l4310.08 8.49 -5.66 2674.96 -713.58 4.86c61.59,65.16 158.71,87.26 287.34,176 152.49,105.21 184.2,159.42 282.73,164.5 471.8,24.3 490.87,29.59 490.75,-401.98 -0.17,-597.18 0,-1194.37 0,-1791.56 0,-1360.65 93.45,-1179.69 -626.4,-1179.69l-3605.79 0c-222.62,0 -715.57,-85.05 -759.3,143.88l-3.17 2691.3c0,545.24 -42.95,534.39 354.25,534 293,-0.27 586.96,-2.12 879.86,0.53l-72.13 -321.73c-164.69,-57.73 -599.38,-0.87 -820.78,-23.93l1.8 -2679.63z"/>
   <path fill="#96989A" d="M5390.95 2118.9c-1085.6,235.64 -691.76,1813.02 327.07,1584.57 390.88,-87.65 711.54,-448.28 627.23,-939.85 -67.39,-392.99 -459.18,-752.19 -954.3,-644.72z"/>
   <path fill="#96989A" d="M5841.43 3871.1c-102.08,37.2 -209.86,57.07 -336.89,51.42 -423.24,-18.82 -111.21,-220.46 -861.16,112.12 -92.82,-86.47 -451.09,-741.53 -559.52,-868.01l-133.11 18.13c-45.77,140.36 97.73,554.3 142.57,717.21 48.27,175.32 130.2,553.81 187.22,698.36l2530.19 -9.89c30.42,-61.06 25.37,-163.79 22.15,-254.18 -105.15,-139.38 -697.4,-572.34 -991.45,-465.16z"/>
  </g>
  <path fill="#96989A" fill-rule="nonzero" d="M2923.55 7877.52l-2.84 0 -153.46 511.54c-5.69,18.94 -16.58,31.26 -32.69,36.94 -16.1,5.69 -32.2,5.69 -48.31,0 -16.1,-5.68 -29.84,-15.63 -41.2,-29.84 -11.37,-14.21 -14.21,-31.73 -8.53,-52.57l500.17 -1631.22c5.68,-20.84 16.1,-35.53 31.26,-44.05 15.15,-8.53 30.78,-12.32 46.89,-11.37 16.1,0.95 31.26,6.63 45.47,17.05 14.21,10.42 24.15,24.16 29.84,41.21l537.11 1617.01c7.57,20.84 6.15,38.37 -4.27,52.57 -10.42,14.21 -24.15,24.16 -41.2,29.84 -17.06,5.69 -34.11,5.69 -51.16,0 -17.05,-5.68 -29.36,-17.99 -36.94,-36.94l-170.51 -525.74 -5.69 0 -593.94 25.57zm36.94 -130.72l522.9 -19.89 -267.13 -826.98 -255.77 846.87zm1855.73 -301.24c1.9,89.05 3.32,161.04 4.26,215.98 0.95,54.95 1.9,100.89 2.85,137.83 0.94,36.95 1.42,70.1 1.42,99.47 0,29.36 0,62.05 0,98.04 0,36 0.47,80.05 1.42,132.15 0.95,52.1 1.42,120.78 1.42,206.03 0,22.74 -7.58,39.79 -22.74,51.16 -15.15,11.36 -31.73,17.05 -49.73,17.05 -18,0 -34.57,-5.21 -49.73,-15.63 -15.16,-10.42 -22.74,-26.05 -22.74,-46.89l0 -144.94c-34.1,53.05 -76.73,94.73 -127.88,125.04 -51.15,30.32 -113.67,45.47 -187.56,45.47 -64.42,1.9 -119.36,-9.94 -164.83,-35.52 -45.47,-25.58 -82.41,-60.63 -110.83,-105.15 -28.42,-44.52 -50.21,-96.62 -65.36,-156.3 -15.16,-59.68 -26.53,-123.15 -34.1,-190.4 -7.58,-67.26 -11.85,-135.94 -12.79,-206.04 -0.95,-70.1 -1.42,-138.3 -1.42,-204.61 0,-20.84 7.1,-36.95 21.31,-48.31 14.21,-11.37 29.84,-17.53 46.89,-18.48 17.05,-0.94 33.16,3.79 48.31,14.21 15.16,10.42 22.74,27 22.74,49.74 1.89,83.36 3.79,170.03 5.68,260.03 1.89,89.99 9.95,173.35 24.16,250.08 14.21,76.73 38.83,139.72 73.88,188.98 35.05,49.26 86.68,73.89 154.88,73.89 106.1,0 181.88,-57.78 227.35,-173.35 45.47,-115.57 69.15,-278.5 71.05,-488.8l0 -119.36c0,-20.84 7.1,-36.94 21.31,-48.31 14.21,-11.37 29.84,-18 46.89,-19.89 17.05,-1.9 33.16,1.89 48.31,11.36 15.16,9.48 23.69,24.63 25.58,45.47zm323.97 -656.46c0,-24.63 7.11,-42.63 21.31,-54 14.21,-11.37 30.32,-17.05 48.32,-17.05 17.99,0 34.1,5.68 48.31,17.05 14.21,11.37 21.31,29.37 21.31,54l22.74 1545.96c0,20.84 -8.06,36.95 -24.16,48.31 -16.1,11.37 -33.15,17.05 -51.15,17.05 -18,0 -35.05,-5.68 -51.16,-17.05 -16.1,-11.36 -24.15,-27.47 -24.15,-48.31l-11.37 -1545.96zm1060.01 568.37c1.9,-24.63 9.95,-42.63 24.16,-54 14.21,-11.37 29.84,-17.05 46.89,-17.05 17.05,0 32.21,5.68 45.47,17.05 13.26,11.37 20.84,29.37 22.73,54 5.69,161.03 9.48,322.07 11.37,483.11 1.9,161.04 8.53,327.76 19.89,500.17 -1.89,18.94 -9.94,33.62 -24.15,44.04 -14.21,10.42 -29.37,15.63 -45.47,15.63 -16.1,0 -31.26,-4.73 -45.47,-14.2 -14.21,-9.48 -22.26,-24.63 -24.16,-45.47l-8.52 -139.25c-43.58,39.78 -97.1,68.2 -160.57,85.25 -63.46,17.05 -137.83,15.16 -223.08,-5.68 -51.15,-11.37 -94.73,-31.26 -130.73,-59.68 -35.99,-28.42 -65.36,-61.58 -88.09,-99.47 -22.74,-37.89 -39.32,-79.57 -49.74,-125.04 -10.42,-45.47 -13.73,-91.88 -9.94,-139.25 3.79,-54.94 15.63,-108.46 35.52,-160.56 19.89,-52.1 47.36,-98.52 82.41,-139.25 35.05,-40.74 77.68,-72.94 127.89,-96.63 50.2,-23.68 106.57,-35.52 169.09,-35.52 45.47,1.89 87.15,11.84 125.04,29.84 37.89,18 72.94,41.21 105.15,69.63 -1.9,-26.53 -3.32,-54 -4.27,-82.42 -0.94,-28.42 -1.42,-56.84 -1.42,-85.25zm-324.91 787.19c37.89,15.15 74.83,19.42 111.77,12.79 36.48,-6.63 70.1,-20.37 99.94,-41.21 30.32,-20.84 56.84,-47.36 79.58,-79.57 22.26,-32.21 38.36,-66.31 47.83,-102.31l-5.68 -159.14c-15.16,-53.05 -37.89,-95.68 -69.15,-127.89 -31.26,-32.2 -65.37,-54.46 -103.26,-66.78 -37.41,-12.31 -76.73,-15.16 -117.46,-8.52 -40.26,6.63 -77.2,22.26 -109.88,46.89 -33.16,24.63 -60.16,59.2 -80.52,103.72 -20.84,44.53 -30.32,98.05 -28.42,160.57 1.89,54.94 16.58,106.57 43.57,154.88 27.47,48.31 71.52,83.83 131.68,106.57zm847.82 19.89c28.42,28.42 70.1,50.68 125.04,66.78 54.94,16.11 109.88,23.21 164.83,21.32 54.94,-1.9 103.25,-13.26 144.93,-34.1 41.68,-20.84 62.52,-54 62.52,-99.47 0,-41.68 -13.73,-73.89 -41.21,-96.62 -27.47,-22.74 -62.04,-41.21 -103.72,-55.42 -41.68,-14.21 -87.15,-26.52 -136.41,-36.94 -49.26,-10.42 -95.2,-24.16 -137.83,-41.21 -42.63,-17.05 -79.57,-39.78 -110.83,-68.2 -31.26,-28.42 -48.79,-68.21 -52.58,-119.36 -3.79,-53.05 3.79,-99.47 22.74,-139.25 18.94,-39.79 44.99,-73.42 78.15,-100.89 33.15,-27.47 71.04,-48.31 113.67,-62.52 42.63,-14.21 86.68,-23.21 132.15,-26.99 64.41,-3.79 125.04,7.1 181.88,32.68 56.83,25.57 100.41,60.15 130.72,103.72 11.37,17.06 15.16,33.63 11.37,49.74 -3.79,16.1 -11.84,28.89 -24.16,38.36 -12.31,9.47 -27,13.26 -44.05,11.37 -17.05,-1.9 -33.15,-11.37 -48.31,-28.42 -24.63,-26.52 -56.83,-46.89 -96.62,-61.1 -39.79,-14.21 -80.52,-19.42 -122.2,-15.63 -53.05,5.68 -99.47,22.26 -139.25,49.73 -39.79,27.47 -58.73,65.84 -56.84,115.1 0,32.21 14.68,56.36 44.05,72.46 29.84,16.11 66.78,30.79 111.78,44.05 44.52,13.27 92.36,26.53 142.57,39.79 50.68,13.26 97.09,31.73 140.19,55.42 42.63,23.68 77.68,54.94 105.63,93.78 27.47,38.84 40.26,90.46 38.36,154.88 -1.89,51.15 -17.52,94.73 -46.89,130.72 -29.84,36 -66.78,64.42 -111.31,85.26 -44.99,20.84 -94.72,35.05 -150.14,42.63 -54.94,7.57 -109.41,8.52 -163.88,2.84 -53.99,-5.69 -104.67,-17.53 -151.09,-35.53 -46.42,-17.99 -84.31,-42.15 -112.73,-72.46 -17.05,-17.05 -24.63,-36 -22.73,-56.84 1.89,-20.84 9,-38.36 21.31,-52.57 12.32,-14.21 27.95,-22.74 46.89,-25.58 18.95,-2.84 36.95,3.31 54,18.47z"/>
 </g>
</svg>
