<?xml version="1.0" encoding="UTF-8"?>
<!DOCTYPE svg PUBLIC "-//W3C//DTD SVG 1.1//EN" "http://www.w3.org/Graphics/SVG/1.1/DTD/svg11.dtd">
<!-- Creator: CorelDRAW 2020 (64 Bit) -->
<svg xmlns="http://www.w3.org/2000/svg" xml:space="preserve" width="100mm" height="85mm" version="1.1" shape-rendering="geometricPrecision" text-rendering="geometricPrecision" image-rendering="optimizeQuality" fill-rule="evenodd" clip-rule="evenodd"
viewBox="0 0 10000 8500"
 xmlns:xlink="http://www.w3.org/1999/xlink"
 xmlns:xodm="http://www.corel.com/coreldraw/odm/2003">
 <g id="Camada_x0020_1">
  <metadata id="CorelCorpID_0Corel-Layer"/>
  <g id="_2895293133616">
   <g id="_1866715248176">
    <g id="_1472113080544">
     <g>
      <path fill="#ED3237" d="M5073.56 4862.97c-121.48,-279.01 -1055.61,-432.12 -540.89,-1159.13 449.17,-634.43 813.28,-293.87 1024.76,-209.78 360.89,143.49 133.01,141.25 379.2,-73.62 -93.62,-305.72 -412.98,-340.34 -818.5,-469.86 -14.83,-570.85 397.5,-707.01 489.2,-1403.37 292.26,-2219.11 -2758.53,-1869.52 -2013.35,379.28 190.95,576.28 772.63,840.27 130.7,1106.47 -415.93,172.47 -967.09,426.98 -1111.61,717.29 -599.3,1203.73 1642.58,1143.56 2460.49,1112.72z"/>
      <path fill="#ED3237" d="M7285.68 2750.84c-720.32,385.03 -1111.53,743.28 -1484.93,1348.52 -255.13,-205.45 -357.7,-466.96 -901.8,-436.6 -92.53,164.24 -177.18,241.05 -182.77,508.97 154.66,148.46 406.75,276.14 565.93,424.26 192.94,179.53 260.86,401.14 544.12,454.26 299.54,-264.05 544.01,-1181.42 957.27,-1632.7 170.64,-186.36 297.19,-270.73 431.72,-458.75 0,-115.21 -29.35,-89.5 83.89,-81.56l96.94 -43.89c7.72,-97.26 -16.42,-73.02 85.59,-54.96l-0.94 -107.62 -92.87 19.42c21.92,118.42 35.15,76.49 -102.15,60.65z"/>
     </g>
     <path fill="#ED3237" fill-rule="nonzero" d="M1130.84 7070.13c1.99,25.78 -2.97,46.1 -14.87,60.97 -11.9,14.88 -26.77,23.8 -44.61,26.77 -17.85,2.98 -34.71,-0.99 -50.57,-11.89 -15.86,-10.91 -26.77,-28.26 -32.72,-52.06 -5.95,-31.72 -17.35,-64.94 -34.2,-99.64 -16.86,-34.7 -38.67,-65.44 -65.44,-92.21 -26.77,-26.77 -57.01,-48.08 -90.72,-63.95 -33.71,-15.86 -69.4,-22.8 -107.08,-20.82 -57.51,5.95 -108.07,31.73 -151.7,77.34 -43.62,45.6 -79.81,103.11 -108.56,172.51 -28.75,69.41 -51.06,145.25 -66.93,227.55 -15.86,82.29 -24.78,162.1 -26.77,239.44 -1.98,37.67 -0.49,82.29 4.47,133.85 4.95,51.55 13.38,105.09 25.28,160.61 11.9,55.53 28.25,110.06 49.08,163.6 20.82,53.54 46.59,101.62 77.33,144.26 30.74,42.63 67.42,76.34 110.05,101.13 42.64,24.78 91.72,36.19 147.24,34.2 85.26,-1.98 165.08,-35.19 239.44,-99.64 74.36,-64.45 132.36,-144.26 174,-239.44 11.9,-23.8 27.27,-39.16 46.11,-46.1 18.83,-6.94 36.68,-7.44 53.54,-1.49 16.85,5.95 29.74,17.35 38.66,34.2 8.93,16.86 9.42,37.18 1.49,60.98 -21.81,65.44 -52.55,124.93 -92.21,178.47 -39.66,53.54 -84.77,99.14 -135.33,136.82 -50.57,37.67 -104.11,66.92 -160.62,87.74 -56.52,20.83 -112.53,32.23 -168.06,34.21 -105.09,3.97 -193.33,-23.3 -264.72,-81.8 -71.39,-58.49 -128.89,-131.37 -172.52,-218.62 -43.62,-87.25 -74.36,-182.43 -92.2,-285.54 -17.85,-103.11 -26.77,-198.3 -26.77,-285.55 0,-103.11 9.42,-205.23 28.25,-306.36 18.84,-101.13 48.09,-191.85 87.75,-272.16 39.66,-80.31 89.73,-147.23 150.21,-200.77 60.48,-53.54 133.35,-86.26 218.62,-98.16 53.54,-5.95 105.59,1.49 156.15,22.31 50.57,20.82 96.67,50.56 138.32,89.23 41.64,38.67 76.83,83.78 105.59,135.34 28.75,51.55 47.09,103.11 55.02,154.67zm386.68 -318.27c0,-23.79 7.93,-41.14 23.8,-52.05 15.86,-10.9 33.71,-16.36 53.54,-16.36 19.83,0 37.67,5.95 53.54,17.85 15.86,11.9 23.79,27.76 23.79,47.59 0,71.39 0,136.33 0,194.82 0,58.5 0,117.99 0,178.47 0,60.48 0.5,126.91 1.49,199.29 0.99,72.37 1.49,159.13 1.49,260.26 37.67,-45.61 84.27,-82.29 139.79,-110.06 55.53,-27.76 122.95,-42.63 202.26,-44.61 67.42,-1.98 125.42,8.43 174.01,31.23 48.58,22.8 90.22,53.54 124.92,92.21 34.7,38.66 61.97,84.27 81.8,136.82 19.83,52.55 33.71,108.57 41.64,168.05 11.9,85.27 18.84,172.52 20.82,261.75 1.99,89.24 2.98,172.52 2.98,249.85 0,17.85 -7.44,31.73 -22.31,41.65 -14.87,9.91 -31.73,14.87 -50.57,14.87 -18.83,0 -35.69,-4.46 -50.56,-13.39 -14.87,-8.92 -22.31,-22.3 -22.31,-40.15 0,-83.28 -0.5,-167.56 -1.49,-252.83 -0.99,-85.26 -6.44,-168.55 -16.36,-249.85 -9.91,-83.28 -41.14,-155.16 -93.69,-215.64 -52.55,-60.48 -117.49,-90.72 -194.83,-90.72 -93.19,0 -168.55,36.19 -226.05,108.56 -57.51,72.38 -92.21,191.85 -104.11,358.42l5.95 350.98c0,17.85 -7.93,31.73 -23.79,41.64 -15.87,9.92 -33.22,15.37 -52.05,16.36 -18.84,1 -36.69,-2.97 -53.54,-11.89 -16.86,-8.93 -25.29,-22.31 -25.29,-40.16 -1.98,-144.75 -3.47,-284.55 -4.46,-419.39 -0.99,-134.84 -2.48,-267.7 -4.46,-398.57 -1.98,-130.88 -3.47,-263.24 -4.46,-397.09 -0.99,-133.85 -1.49,-273.15 -1.49,-417.91zm1826.29 597.86c1.98,-25.78 10.41,-44.61 25.28,-56.51 14.88,-11.9 31.24,-17.85 49.08,-17.85 17.85,0 33.71,5.95 47.59,17.85 13.88,11.9 21.82,30.73 23.8,56.51 5.95,168.55 9.91,337.1 11.9,505.65 1.98,168.56 8.92,343.05 20.82,523.5 -1.99,19.83 -10.41,35.2 -25.29,46.11 -14.87,10.9 -30.73,16.36 -47.59,16.36 -16.85,0 -32.72,-4.96 -47.59,-14.88 -14.87,-9.91 -23.3,-25.78 -25.28,-47.59l-8.92 -145.74c-45.61,41.64 -101.63,71.38 -168.06,89.23 -66.43,17.85 -144.26,15.86 -233.49,-5.95 -53.54,-11.9 -99.15,-32.72 -136.82,-62.46 -37.68,-29.75 -68.41,-64.45 -92.21,-104.11 -23.8,-39.66 -41.15,-83.28 -52.05,-130.87 -10.91,-47.59 -14.38,-96.18 -10.41,-145.75 3.96,-57.5 16.36,-113.52 37.18,-168.05 20.82,-54.53 49.57,-103.12 86.26,-145.75 36.68,-42.63 81.3,-76.34 133.84,-101.13 52.55,-24.79 111.55,-37.18 176.98,-37.18 47.59,1.98 91.22,12.39 130.88,31.23 39.66,18.84 76.34,43.13 110.05,72.87 -1.98,-27.76 -3.47,-56.51 -4.46,-86.25 -0.99,-29.75 -1.49,-59.49 -1.49,-89.24zm-340.07 823.92c39.66,15.86 78.32,20.32 116.99,13.38 38.17,-6.94 73.37,-21.31 104.6,-43.13 31.73,-21.81 59.49,-49.57 83.28,-83.28 23.3,-33.71 40.16,-69.4 50.07,-107.08l-5.95 -166.57c-15.86,-55.52 -39.65,-100.14 -72.37,-133.85 -32.72,-33.71 -68.41,-57.01 -108.07,-69.89 -39.17,-12.89 -80.31,-15.87 -122.95,-8.93 -42.13,6.94 -80.8,23.3 -115.01,49.08 -34.7,25.78 -62.96,61.97 -84.27,108.57 -21.81,46.6 -31.73,102.61 -29.75,168.05 1.99,57.51 17.35,111.54 45.61,162.11 28.75,50.56 74.86,87.74 137.82,111.54zm970.65 -550.27c35.69,-69.4 80.81,-126.91 135.34,-172.52 54.53,-45.6 123.44,-69.4 206.72,-71.38 51.56,0 96.16,11.9 133.84,35.69 37.67,23.8 69.9,54.53 96.67,92.21 26.77,37.67 49.07,79.81 66.92,126.41 17.85,46.6 32.72,91.71 44.62,135.34 7.93,-31.73 21.31,-68.91 40.15,-111.54 18.84,-42.64 42.64,-83.29 71.39,-121.96 28.75,-38.66 62.46,-71.88 101.13,-99.64 38.67,-27.76 80.8,-41.64 126.41,-41.64 65.44,-1.98 120.96,10.41 166.56,37.18 45.61,26.77 83.28,63.95 113.03,111.54 29.74,47.59 53.04,103.61 69.9,168.06 16.85,64.44 29.74,132.85 38.66,205.23 8.93,72.38 14.38,146.74 16.36,223.08 1.99,76.35 2.98,151.2 2.98,224.57 0,21.81 -7.44,37.68 -22.31,47.59 -14.87,9.92 -31.73,14.87 -50.57,14.87 -18.83,0 -35.69,-4.95 -50.56,-14.87 -14.87,-9.91 -22.31,-25.78 -22.31,-47.59 -1.98,-89.23 -4.46,-182.93 -7.44,-281.08 -2.97,-98.16 -11.89,-187.89 -26.77,-269.19 -14.87,-81.3 -38.17,-148.72 -69.89,-202.26 -31.72,-53.54 -77.33,-79.32 -136.82,-77.33 -51.55,1.98 -96.17,24.78 -133.85,68.41 -37.67,43.62 -68.9,103.11 -93.69,178.46 -24.79,75.36 -42.14,164.59 -52.05,267.7 -9.92,103.12 -11.9,214.16 -5.95,333.14 0,17.84 -7.44,32.22 -22.31,43.13 -14.87,10.9 -31.23,17.35 -49.08,19.33 -17.84,1.98 -34.7,-2.48 -50.56,-13.39 -15.87,-10.9 -23.8,-28.25 -23.8,-52.05 -5.95,-97.16 -12.39,-196.8 -19.33,-298.93 -6.94,-102.12 -19.34,-194.82 -37.18,-278.1 -17.85,-83.29 -43.63,-151.2 -77.34,-203.75 -33.71,-52.55 -80.3,-77.83 -139.79,-75.85 -49.57,0 -91.71,15.86 -126.41,47.59 -34.7,31.73 -63.45,72.87 -86.26,123.44 -22.8,50.56 -40.15,107.57 -52.05,171.03 -11.9,63.45 -20.82,127.9 -26.77,193.34 -5.95,65.43 -9.42,128.39 -10.41,188.87 -0.99,60.48 -1.49,112.53 -1.49,156.16 -3.96,15.86 -13.88,27.76 -29.74,35.69 -15.86,7.93 -32.72,11.9 -50.57,11.9 -17.84,0 -34.2,-3.97 -49.07,-11.9 -14.88,-7.93 -22.31,-19.83 -22.31,-35.69 -11.9,-146.74 -18.84,-303.39 -20.82,-469.96 -1.99,-166.57 -7.93,-337.1 -17.85,-511.6 1.98,-25.78 10.41,-44.62 25.28,-56.51 14.88,-11.9 31.23,-17.85 49.08,-17.85 17.85,0 33.71,5.95 47.59,17.85 13.88,11.89 21.81,30.73 23.8,56.51l8.92 202.26zm2311.1 -273.65c1.98,-25.78 10.41,-44.61 25.28,-56.51 14.88,-11.9 31.24,-17.85 49.08,-17.85 17.85,0 33.71,5.95 47.59,17.85 13.88,11.9 21.82,30.73 23.8,56.51 5.95,168.55 9.91,337.1 11.9,505.65 1.98,168.56 8.92,343.05 20.82,523.5 -1.99,19.83 -10.41,35.2 -25.29,46.11 -14.87,10.9 -30.73,16.36 -47.59,16.36 -16.85,0 -32.72,-4.96 -47.59,-14.88 -14.87,-9.91 -23.3,-25.78 -25.28,-47.59l-8.92 -145.74c-45.61,41.64 -101.63,71.38 -168.06,89.23 -66.43,17.85 -144.26,15.86 -233.49,-5.95 -53.54,-11.9 -99.15,-32.72 -136.82,-62.46 -37.68,-29.75 -68.41,-64.45 -92.21,-104.11 -23.8,-39.66 -41.15,-83.28 -52.05,-130.87 -10.91,-47.59 -14.38,-96.18 -10.41,-145.75 3.96,-57.5 16.36,-113.52 37.18,-168.05 20.82,-54.53 49.57,-103.12 86.26,-145.75 36.68,-42.63 81.3,-76.34 133.84,-101.13 52.55,-24.79 111.55,-37.18 176.98,-37.18 47.59,1.98 91.22,12.39 130.88,31.23 39.66,18.84 76.34,43.13 110.05,72.87 -1.98,-27.76 -3.47,-56.51 -4.46,-86.25 -0.99,-29.75 -1.49,-59.49 -1.49,-89.24zm-340.07 823.92c39.66,15.86 78.32,20.32 116.99,13.38 38.17,-6.94 73.37,-21.31 104.6,-43.13 31.73,-21.81 59.49,-49.57 83.28,-83.28 23.3,-33.71 40.16,-69.4 50.07,-107.08l-5.95 -166.57c-15.86,-55.52 -39.65,-100.14 -72.37,-133.85 -32.72,-33.71 -68.41,-57.01 -108.07,-69.89 -39.17,-12.89 -80.31,-15.87 -122.95,-8.93 -42.13,6.94 -80.8,23.3 -115.01,49.08 -34.7,25.78 -62.96,61.97 -84.27,108.57 -21.81,46.6 -31.73,102.61 -29.75,168.05 1.99,57.51 17.35,111.54 45.61,162.11 28.75,50.56 74.86,87.74 137.82,111.54zm1586.36 -1424.75c1.98,-25.78 9.91,-45.11 23.79,-58 13.88,-12.89 29.75,-19.33 47.59,-19.33 17.85,0 34.21,6.44 49.08,19.33 14.87,12.89 23.3,32.22 25.28,58 -5.95,144.76 -9.91,282.57 -11.9,413.44 -1.98,130.88 -2.47,260.76 -1.48,389.65 0.99,128.9 2.48,259.27 4.46,391.14 1.98,131.87 3.96,270.18 5.95,414.93 -3.97,21.81 -12.89,38.17 -26.77,49.08 -13.88,10.91 -29.25,16.36 -46.11,16.36 -16.85,0 -32.22,-5.45 -46.1,-16.36 -13.88,-10.91 -22.8,-27.27 -26.77,-49.08 0,-21.81 -0.49,-43.62 -1.49,-65.44 -0.99,-21.81 -1.48,-43.62 -1.48,-65.43 -63.46,61.47 -140.3,102.12 -230.52,121.95 -90.22,19.83 -177.47,16.85 -261.75,-8.92 -84.27,-25.78 -157.64,-74.86 -220.11,-147.24 -62.46,-72.38 -98.65,-171.03 -108.56,-295.95 -5.95,-138.81 19.83,-250.35 77.33,-334.63 57.51,-84.27 129.39,-142.27 215.65,-174 86.26,-31.73 176.98,-38.17 272.16,-19.33 95.18,18.83 177.47,62.96 246.87,132.36 -1.98,-120.96 -1.48,-242.42 1.49,-364.37 2.98,-121.95 7.44,-251.34 13.39,-388.16zm-14.88 1139.2c-1.98,-89.23 -21.31,-163.09 -58,-221.59 -36.68,-58.5 -80.8,-101.63 -132.36,-129.39 -51.56,-27.76 -107.08,-40.15 -166.57,-37.18 -59.49,2.98 -113.02,20.33 -160.62,52.05 -47.59,31.73 -85.76,77.83 -114.51,138.31 -28.75,60.48 -38.17,135.34 -28.26,224.57 7.93,75.35 30.24,136.33 66.93,182.93 36.68,46.6 79.31,79.81 127.9,99.64 48.58,19.83 100.63,27.27 156.15,22.31 55.53,-4.96 106.09,-20.82 151.7,-47.59 45.61,-26.77 83.28,-64.45 113.03,-113.03 29.74,-48.58 44.61,-105.59 44.61,-171.03zm1070.79 -538.37c1.98,-25.78 10.41,-44.61 25.28,-56.51 14.88,-11.9 31.24,-17.85 49.08,-17.85 17.85,0 33.71,5.95 47.59,17.85 13.88,11.9 21.82,30.73 23.8,56.51 5.95,168.55 9.91,337.1 11.9,505.65 1.98,168.56 8.92,343.05 20.82,523.5 -1.99,19.83 -10.41,35.2 -25.29,46.11 -14.87,10.9 -30.73,16.36 -47.59,16.36 -16.85,0 -32.72,-4.96 -47.59,-14.88 -14.87,-9.91 -23.3,-25.78 -25.28,-47.59l-8.92 -145.74c-45.61,41.64 -101.63,71.38 -168.06,89.23 -66.43,17.85 -144.26,15.86 -233.49,-5.95 -53.54,-11.9 -99.15,-32.72 -136.82,-62.46 -37.68,-29.75 -68.41,-64.45 -92.21,-104.11 -23.8,-39.66 -41.15,-83.28 -52.05,-130.87 -10.91,-47.59 -14.38,-96.18 -10.41,-145.75 3.96,-57.5 16.36,-113.52 37.18,-168.05 20.82,-54.53 49.57,-103.12 86.26,-145.75 36.68,-42.63 81.3,-76.34 133.84,-101.13 52.55,-24.79 111.55,-37.18 176.98,-37.18 47.59,1.98 91.22,12.39 130.88,31.23 39.66,18.84 76.34,43.13 110.05,72.87 -1.98,-27.76 -3.47,-56.51 -4.46,-86.25 -0.99,-29.75 -1.49,-59.49 -1.49,-89.24zm-340.07 823.92c39.66,15.86 78.32,20.32 116.99,13.38 38.17,-6.94 73.37,-21.31 104.6,-43.13 31.73,-21.81 59.49,-49.57 83.28,-83.28 23.3,-33.71 40.16,-69.4 50.07,-107.08l-5.95 -166.57c-15.86,-55.52 -39.65,-100.14 -72.37,-133.85 -32.72,-33.71 -68.41,-57.01 -108.07,-69.89 -39.17,-12.89 -80.31,-15.87 -122.95,-8.93 -42.13,6.94 -80.8,23.3 -115.01,49.08 -34.7,25.78 -62.96,61.97 -84.27,108.57 -21.81,46.6 -31.73,102.61 -29.75,168.05 1.99,57.51 17.35,111.54 45.61,162.11 28.75,50.56 74.86,87.74 137.82,111.54zm887.37 20.82c29.74,29.74 73.37,53.04 130.87,69.9 57.51,16.85 115.01,24.29 172.52,22.31 57.5,-1.99 108.07,-13.89 151.69,-35.7 43.63,-21.81 65.44,-56.51 65.44,-104.1 0,-43.63 -14.38,-77.34 -43.13,-101.13 -28.75,-23.8 -64.94,-43.13 -108.56,-58 -43.63,-14.88 -91.22,-27.76 -142.78,-38.67 -51.55,-10.91 -99.64,-25.28 -144.26,-43.13 -44.61,-17.85 -83.28,-41.64 -116,-71.39 -32.72,-29.74 -51.06,-71.38 -55.03,-124.92 -3.96,-55.52 3.97,-104.11 23.8,-145.75 19.83,-41.64 47.09,-76.84 81.8,-105.59 34.7,-28.75 74.36,-50.57 118.97,-65.44 44.62,-14.87 90.72,-24.29 138.31,-28.25 67.42,-3.97 130.88,7.43 190.37,34.2 59.48,26.77 105.09,62.96 136.82,108.57 11.9,17.84 15.86,35.19 11.9,52.05 -3.97,16.85 -12.4,30.24 -25.28,40.15 -12.89,9.92 -28.26,13.89 -46.11,11.9 -17.85,-1.98 -34.7,-11.9 -50.56,-29.74 -25.78,-27.76 -59.49,-49.08 -101.13,-63.95 -41.65,-14.87 -84.28,-20.33 -127.9,-16.36 -55.53,5.95 -104.11,23.3 -145.75,52.05 -41.64,28.75 -61.47,68.91 -59.49,120.47 0,33.71 15.37,58.99 46.1,75.84 31.24,16.86 69.9,32.23 117,46.11 46.6,13.88 96.67,27.76 149.22,41.64 53.04,13.88 101.62,33.21 146.73,58 44.62,24.79 81.3,57.5 110.55,98.16 28.76,40.65 42.14,94.68 40.16,162.1 -1.99,53.54 -18.35,99.15 -49.08,136.82 -31.23,37.68 -69.9,67.42 -116.5,89.24 -47.09,21.81 -99.15,36.68 -157.15,44.61 -57.5,7.94 -114.51,8.93 -171.52,2.98 -56.52,-5.95 -109.56,-18.34 -158.14,-37.18 -48.58,-18.84 -88.24,-44.12 -117.99,-75.85 -17.84,-17.85 -25.78,-37.68 -23.79,-59.49 1.98,-21.81 9.42,-40.15 22.31,-55.03 12.88,-14.87 29.24,-23.79 49.07,-26.77 19.83,-2.97 38.67,3.47 56.52,19.34z"/>
    </g>
   </g>
  </g>
 </g>
</svg>
