<?xml version="1.0" encoding="UTF-8"?>
<!DOCTYPE svg PUBLIC "-//W3C//DTD SVG 1.1//EN" "http://www.w3.org/Graphics/SVG/1.1/DTD/svg11.dtd">
<!-- Creator: CorelDRAW 2020 (64 Bit) -->
<svg xmlns="http://www.w3.org/2000/svg" xml:space="preserve" width="60mm" height="60mm" version="1.1" shape-rendering="geometricPrecision" text-rendering="geometricPrecision" image-rendering="optimizeQuality" fill-rule="evenodd" clip-rule="evenodd"
viewBox="0 0 6000 6000"
 xmlns:xlink="http://www.w3.org/1999/xlink"
 xmlns:xodm="http://www.corel.com/coreldraw/odm/2003">
 <g id="Camada_x0020_1">
  <metadata id="CorelCorpID_0Corel-Layer"/>
  <g id="_1472126179920">
   <path fill="#96989A" d="M3070.8 5318.38c-121.48,-279.01 -1055.62,-432.12 -540.89,-1159.14 449.17,-634.43 813.29,-293.87 1024.77,-209.78 360.89,143.49 133.01,141.25 379.2,-73.62 -93.62,-305.72 -412.98,-340.34 -818.51,-469.86 -14.83,-570.85 397.51,-707.01 489.21,-1403.37 292.26,-2219.11 -2758.55,-1869.52 -2013.37,379.28 190.95,576.28 772.63,840.27 130.7,1106.47 -415.93,172.47 -967.09,426.98 -1111.61,717.29 -599.3,1203.74 1642.58,1143.57 2460.5,1112.73z"/>
   <path fill="#96989A" d="M5282.93 3206.24c-720.32,385.03 -1111.53,743.28 -1484.93,1348.52 -255.13,-205.45 -357.7,-466.96 -901.81,-436.6 -92.53,164.24 -177.18,241.05 -182.77,508.97 154.66,148.47 406.75,276.15 565.94,424.27 192.94,179.53 260.86,401.15 544.12,454.27 299.54,-264.06 544.01,-1181.44 957.27,-1632.72 170.64,-186.36 297.19,-270.73 431.72,-458.75 0,-115.21 -29.35,-89.5 83.89,-81.56l96.94 -43.89c7.72,-97.26 -16.42,-73.02 85.59,-54.96l-0.94 -107.62 -92.87 19.42c21.92,118.42 35.15,76.49 -102.15,60.65z"/>
  </g>
 </g>
</svg>
