<?xml version="1.0" encoding="UTF-8"?>
<!DOCTYPE svg PUBLIC "-//W3C//DTD SVG 1.1//EN" "http://www.w3.org/Graphics/SVG/1.1/DTD/svg11.dtd">
<!-- Creator: CorelDRAW 2020 (64 Bit) -->
<svg xmlns="http://www.w3.org/2000/svg" xml:space="preserve" width="100mm" height="85mm" version="1.1" shape-rendering="geometricPrecision" text-rendering="geometricPrecision" image-rendering="optimizeQuality" fill-rule="evenodd" clip-rule="evenodd"
viewBox="0 0 10000 8500"
 xmlns:xlink="http://www.w3.org/1999/xlink"
 xmlns:xodm="http://www.corel.com/coreldraw/odm/2003">
 <g id="Camada_x0020_1">
  <metadata id="CorelCorpID_0Corel-Layer"/>
  <g id="_2895447709648">
   <g id="_1866880228272">
    <g id="_1471913689792">
     <path fill="#ED3237" d="M4615.34 3321.76l761.72 0 0 1337.89 -761.72 0 0 -1337.89zm302.98 -3271.48l127.86 0c84.6,8.47 166.85,33.67 236.52,74.83 62.37,36.85 381.98,340.71 463.13,415.77 101.62,93.99 195.69,194.06 297.61,288.33l151.29 141.68c29.02,27.93 48.45,37.77 78.41,68.08l224.53 214.92c24.92,24.93 47.16,50.64 73.68,72.81l829.68 781.64c61.81,60.87 90.51,130.61 95.17,196.43l0 38.89c-8.18,113.6 -87.02,206.62 -185.55,206.62l-576.17 0 0 1806.63c0,229.58 -37.21,351.46 -140.69,484.31 -76.42,98.1 -237.1,209.05 -406.18,209.05l-2382.81 0c-172.51,0 -326.15,-111.43 -407.42,-207.81 -108.75,-128.98 -139.45,-299.76 -139.45,-475.78l0 -1816.4 -585.94 0c-104.17,0 -175.78,-130.87 -175.78,-273.44 0,-92.34 61.37,-134.61 109.86,-183.1l518.02 -497.61c93.53,-78.18 152.95,-154.62 227.37,-212.08l446.16 -422.98c253.84,-255.13 560.69,-532.66 820.16,-781.4 78.7,-75.45 187.13,-117.91 300.54,-129.39zm48.58 449.22c141.56,0 190.19,109.73 319.39,217.72l498.49 478.08c282.54,283.47 611.18,572.12 893.55,854.49l114.75 109.87c-209.35,0 -422.11,-39.51 -449.46,88.29 -8.32,38.88 -1.38,39.42 0.28,86.89 1.45,41.63 -1.58,66.42 -6.01,102.69l5.97 132.28c0,41.24 -7.1,54.3 -7.83,79.04l7.83 116.27c0,41.25 -7.1,54.3 -7.83,79.04l7.83 116.28c0,41.24 -7.1,54.3 -7.83,79.04l7.83 116.27c0,41.24 -7.1,54.3 -7.83,79.04l7.83 116.27c0,41.24 -7.1,54.3 -7.83,79.04l7.83 116.27c0,41.25 -7.1,54.31 -7.83,79.04l7.83 116.28c0,41.24 -7.1,54.3 -7.83,79.03l7.83 116.28c0,41.24 -7.1,54.3 -7.83,79.04l7.83 116.27c0,41.24 -7.1,54.3 -7.83,79.04l7.83 116.26c0,98.96 1.27,227.47 -70.78,290.56 -17.54,15.36 -65.93,41.48 -95.24,41.48l-410.16 0 0 -1533.2c0,-66.89 -16.94,-98.85 -50.83,-134.71 -30.84,-32.63 -74.7,-60.6 -134.71,-60.6l-1171.88 0c-101.72,0 -185.53,83 -185.53,185.55l0 1542.96 -410.16 0c-227.16,0 -166.02,-457.99 -166.02,-615.23l0.56 -1758.37c-0.09,-74.58 -18.91,-102.03 -78.77,-116.54 -81.15,-19.67 -285.33,-9.85 -390.54,-9.85l270.8 -266.31c24.08,-23.19 35.21,-26.58 58.92,-48.51 38.19,-35.33 70.04,-70.29 107.29,-107.55l436.25 -423.12c102.37,-79.04 182.6,-183.11 271.63,-265.48l385.87 -366.08c84.74,-84.81 155.93,-183.11 256.34,-183.11z"/>
     <path fill="#ED3237" fill-rule="nonzero" d="M1130.95 7538.6c0,-119.48 -26.77,-224.08 -80.31,-314.3 -53.54,-90.72 -124.43,-167.06 -212.67,-229.53 -88.24,-62.96 -187.89,-109.56 -298.93,-140.29 -111.05,-30.74 -223.08,-46.1 -336.11,-46.1 0,135.33 0.99,262.74 2.97,383.2 1.98,119.97 3.97,238.95 5.95,357.43 1.98,117.98 3.47,237.95 4.46,358.91 0.99,121.45 0.5,249.35 -1.48,384.69 120.96,-5.95 236.96,-23.79 348,-53.54 111.05,-29.74 208.71,-75.35 292.98,-135.83 84.28,-60.48 151.2,-136.82 200.78,-229.53 49.57,-92.2 74.36,-204.24 74.36,-335.11zm-1073.77 -807.56c0,-27.76 7.44,-47.09 22.31,-58 14.87,-10.91 33.21,-17.35 55.03,-19.33 132.36,-7.94 265.71,5.45 400.55,40.15 134.35,34.7 256.3,89.73 366.35,165.08 109.56,75.35 199.29,170.04 268.69,284.06 68.91,114.02 104.6,245.39 106.58,394.11 1.99,130.87 -21.81,250.35 -71.38,358.42 -49.08,108.07 -122.95,201.27 -221.1,279.59 -97.66,78.33 -217.63,140.29 -360.4,185.9 -142.28,45.61 -306.37,71.39 -492.27,77.34 -37.67,0 -58.5,-21.81 -62.46,-65.44 -3.97,-148.72 -6.45,-289.51 -7.44,-422.37 -0.99,-132.85 -1.98,-264.22 -2.97,-394.11 -0.99,-129.88 -1.49,-261.75 -1.49,-395.6 0,-133.84 0,-277.11 0,-429.8zm2076.14 627.6c1.98,-25.78 10.41,-44.61 25.28,-56.51 14.88,-11.9 31.24,-17.85 49.08,-17.85 17.85,0 33.71,5.95 47.59,17.85 13.88,11.9 21.82,30.73 23.8,56.51 5.95,168.55 9.91,337.1 11.9,505.65 1.98,168.56 8.92,343.05 20.82,523.5 -1.99,19.83 -10.41,35.2 -25.29,46.11 -14.87,10.9 -30.73,16.36 -47.59,16.36 -16.85,0 -32.72,-4.96 -47.59,-14.88 -14.87,-9.91 -23.3,-25.78 -25.28,-47.59l-8.92 -145.74c-45.61,41.64 -101.63,71.38 -168.06,89.23 -66.43,17.85 -144.26,15.86 -233.49,-5.95 -53.54,-11.9 -99.15,-32.72 -136.82,-62.46 -37.68,-29.75 -68.41,-64.45 -92.21,-104.11 -23.8,-39.66 -41.15,-83.28 -52.05,-130.87 -10.91,-47.59 -14.38,-96.18 -10.41,-145.75 3.96,-57.5 16.36,-113.52 37.18,-168.05 20.82,-54.53 49.57,-103.12 86.26,-145.75 36.68,-42.63 81.3,-76.34 133.84,-101.13 52.55,-24.79 111.55,-37.18 176.98,-37.18 47.59,1.98 91.22,12.39 130.88,31.23 39.66,18.84 76.34,43.13 110.05,72.87 -1.98,-27.76 -3.47,-56.51 -4.46,-86.25 -0.99,-29.75 -1.49,-59.49 -1.49,-89.24zm-340.07 823.92c39.66,15.86 78.32,20.32 116.99,13.38 38.17,-6.94 73.37,-21.31 104.6,-43.13 31.73,-21.81 59.49,-49.57 83.28,-83.28 23.3,-33.71 40.16,-69.4 50.07,-107.08l-5.95 -166.57c-15.86,-55.52 -39.65,-100.14 -72.37,-133.85 -32.72,-33.71 -68.41,-57.01 -108.07,-69.89 -39.17,-12.89 -80.31,-15.87 -122.95,-8.93 -42.13,6.94 -80.8,23.3 -115.01,49.08 -34.7,25.78 -62.96,61.97 -84.27,108.57 -21.81,46.6 -31.73,102.61 -29.75,168.05 1.99,57.51 17.35,111.54 45.61,162.11 28.75,50.56 74.86,87.74 137.82,111.54zm887.37 20.82c29.74,29.74 73.37,53.04 130.87,69.9 57.51,16.85 115.01,24.29 172.52,22.31 57.5,-1.99 108.07,-13.89 151.69,-35.7 43.63,-21.81 65.44,-56.51 65.44,-104.1 0,-43.63 -14.38,-77.34 -43.13,-101.13 -28.75,-23.8 -64.94,-43.13 -108.56,-58 -43.63,-14.88 -91.22,-27.76 -142.78,-38.67 -51.55,-10.91 -99.64,-25.28 -144.26,-43.13 -44.61,-17.85 -83.28,-41.64 -116,-71.39 -32.72,-29.74 -51.06,-71.38 -55.03,-124.92 -3.96,-55.52 3.97,-104.11 23.8,-145.75 19.83,-41.64 47.09,-76.84 81.8,-105.59 34.7,-28.75 74.36,-50.57 118.97,-65.44 44.62,-14.87 90.72,-24.29 138.31,-28.25 67.42,-3.97 130.88,7.43 190.37,34.2 59.48,26.77 105.09,62.96 136.82,108.57 11.9,17.84 15.86,35.19 11.9,52.05 -3.97,16.85 -12.4,30.24 -25.28,40.15 -12.89,9.92 -28.26,13.89 -46.11,11.9 -17.85,-1.98 -34.7,-11.9 -50.56,-29.74 -25.78,-27.76 -59.49,-49.08 -101.13,-63.95 -41.65,-14.87 -84.28,-20.33 -127.9,-16.36 -55.53,5.95 -104.11,23.3 -145.75,52.05 -41.64,28.75 -61.47,68.91 -59.49,120.47 0,33.71 15.37,58.99 46.1,75.84 31.24,16.86 69.9,32.23 117,46.11 46.6,13.88 96.67,27.76 149.22,41.64 53.04,13.88 101.62,33.21 146.73,58 44.62,24.79 81.3,57.5 110.55,98.16 28.76,40.65 42.14,94.68 40.16,162.1 -1.99,53.54 -18.35,99.15 -49.08,136.82 -31.23,37.68 -69.9,67.42 -116.5,89.24 -47.09,21.81 -99.15,36.68 -157.15,44.61 -57.5,7.94 -114.51,8.93 -171.52,2.98 -56.52,-5.95 -109.56,-18.34 -158.14,-37.18 -48.58,-18.84 -88.24,-44.12 -117.99,-75.85 -17.84,-17.85 -25.78,-37.68 -23.79,-59.49 1.98,-21.81 9.42,-40.15 22.31,-55.03 12.88,-14.87 29.24,-23.79 49.07,-26.77 19.83,-2.97 38.67,3.47 56.52,19.34zm904.22 -1442.6c0,-23.79 7.93,-41.14 23.8,-52.05 15.86,-10.9 33.71,-16.36 53.54,-16.36 19.83,0 37.67,5.95 53.54,17.85 15.86,11.9 23.79,27.76 23.79,47.59 0,71.39 0,136.33 0,194.82 0,58.5 0,117.99 0,178.47 0,60.48 0.5,126.91 1.49,199.29 0.99,72.37 1.49,159.13 1.49,260.26 37.67,-45.61 84.27,-82.29 139.79,-110.06 55.53,-27.76 122.95,-42.63 202.26,-44.61 67.42,-1.98 125.42,8.43 174,31.23 48.58,22.8 90.22,53.54 124.92,92.21 34.7,38.66 61.97,84.27 81.8,136.82 19.83,52.55 33.71,108.57 41.64,168.05 11.9,85.27 18.84,172.52 20.82,261.75 1.99,89.24 2.98,172.52 2.98,249.85 0,17.85 -7.44,31.73 -22.31,41.65 -14.87,9.91 -31.73,14.87 -50.57,14.87 -18.83,0 -35.69,-4.46 -50.56,-13.39 -14.87,-8.92 -22.31,-22.3 -22.31,-40.15 0,-83.28 -0.5,-167.56 -1.49,-252.83 -0.99,-85.26 -6.44,-168.55 -16.36,-249.85 -9.91,-83.28 -41.14,-155.16 -93.69,-215.64 -52.54,-60.48 -117.48,-90.72 -194.82,-90.72 -93.19,0 -168.55,36.19 -226.05,108.56 -57.51,72.38 -92.21,191.85 -104.11,358.42l5.95 350.98c0,17.85 -7.93,31.73 -23.79,41.64 -15.87,9.92 -33.22,15.37 -52.05,16.36 -18.84,1 -36.69,-2.97 -53.54,-11.89 -16.86,-8.93 -25.29,-22.31 -25.29,-40.16 -1.98,-144.75 -3.47,-284.55 -4.46,-419.39 -0.99,-134.84 -2.48,-267.7 -4.46,-398.57 -1.98,-130.88 -3.47,-263.24 -4.46,-397.09 -0.99,-133.85 -1.49,-273.15 -1.49,-417.91zm1216.53 -2.97c1.98,-25.78 10.41,-45.11 25.28,-58 14.87,-12.89 30.73,-19.33 47.59,-19.33 16.85,0 32.72,6.44 47.59,19.33 14.87,12.89 23.3,32.22 25.28,58 0,136.82 -0.49,271.66 -1.49,404.52 -0.99,132.86 0.5,267.7 4.47,404.52 43.62,-47.59 94.68,-85.26 153.18,-113.03 58.5,-27.76 119.47,-44.12 182.93,-49.07 63.45,-4.96 125.42,0.49 185.9,16.36 60.48,15.86 114.51,44.12 162.1,84.77 47.59,40.65 85.77,92.7 114.52,156.15 28.75,63.46 42.14,139.8 40.15,229.03 -3.96,115.02 -34.7,208.21 -92.2,279.6 -57.51,71.39 -127.41,121.95 -209.7,151.7 -82.29,29.74 -169.05,38.66 -260.26,26.77 -91.22,-11.9 -170.54,-43.63 -237.96,-95.19l8.93 77.34c1.98,25.78 -2.98,46.1 -14.87,60.97 -11.9,14.88 -26.28,23.8 -43.13,26.77 -16.86,2.98 -33.71,-0.49 -50.57,-10.41 -16.85,-9.91 -28.26,-26.77 -34.21,-50.56 -27.76,-269.68 -43.62,-536.88 -47.59,-801.61 -3.96,-264.72 -5.94,-530.93 -5.94,-798.63zm841.76 1121.36c0,-69.41 -15.87,-128.4 -47.59,-176.98 -31.73,-48.58 -70.89,-85.76 -117.49,-111.54 -46.6,-25.78 -98.16,-39.17 -154.67,-40.16 -56.52,-0.99 -109.07,10.91 -157.65,35.7 -48.58,24.78 -90.72,62.46 -126.41,113.02 -35.69,50.57 -56.51,114.52 -62.46,191.85 -5.95,73.37 6.94,134.35 38.66,182.93 31.73,48.58 72.38,84.28 121.95,107.08 49.58,22.8 103.61,33.71 162.11,32.72 58.5,-0.99 113.03,-14.38 163.59,-40.16 50.57,-25.77 93.2,-62.95 127.9,-111.54 34.71,-48.58 52.06,-109.55 52.06,-182.92zm795.65 502.67c-79.31,1.99 -148.22,-9.91 -207.71,-35.69 -58.99,-25.78 -108.07,-61.47 -146.74,-106.09 -38.17,-44.61 -66.43,-95.67 -84.27,-152.19 -17.85,-56.51 -26.77,-115.01 -26.77,-174.5 0,-59.49 9.91,-117.49 29.74,-173.01 19.83,-55.52 49.08,-105.59 87.25,-149.22 38.67,-43.62 86.26,-79.31 142.28,-106.08 56.51,-26.77 122.44,-41.15 197.3,-43.13 75.35,0 141.29,13.38 198.79,40.15 57.01,26.77 104.6,62.96 142.28,107.58 37.67,44.61 64.94,96.17 82.79,153.67 17.84,57.51 26.77,116.5 26.77,175.99 0,57.51 -9.42,114.02 -28.26,168.55 -18.84,54.53 -46.11,104.11 -82.79,147.73 -36.68,43.63 -82.79,79.32 -137.81,106.09 -55.53,26.77 -119.97,40.15 -192.85,40.15zm1.49 -139.79c49.57,0 92.7,-8.93 129.39,-26.77 36.68,-17.85 67.42,-42.14 92.21,-72.88 24.78,-30.73 43.12,-65.93 55.02,-105.59 11.9,-39.66 17.85,-80.31 17.85,-121.95 0,-41.64 -6.45,-82.29 -19.34,-121.95 -12.88,-39.66 -32.71,-74.86 -59.48,-105.59 -26.77,-30.74 -59.49,-55.03 -98.16,-72.88 -38.67,-17.84 -82.79,-26.77 -132.36,-26.77 -49.57,1.99 -93.2,12.89 -130.88,32.72 -37.67,19.83 -68.9,45.11 -93.69,75.85 -24.79,30.74 -43.62,65.44 -56.51,104.1 -12.89,38.67 -19.34,78.83 -19.34,120.47 1.99,81.3 29.75,154.17 83.29,218.62 53.54,64.44 130.87,98.65 232,102.62zm1296.85 -883.41c1.98,-25.78 10.41,-44.61 25.28,-56.51 14.88,-11.9 31.24,-17.85 49.08,-17.85 17.85,0 33.71,5.95 47.59,17.85 13.88,11.9 21.82,30.73 23.8,56.51 5.95,168.55 9.91,337.1 11.9,505.65 1.98,168.56 8.92,343.05 20.82,523.5 -1.99,19.83 -10.41,35.2 -25.29,46.11 -14.87,10.9 -30.73,16.36 -47.59,16.36 -16.85,0 -32.72,-4.96 -47.59,-14.88 -14.87,-9.91 -23.3,-25.78 -25.28,-47.59l-8.92 -145.74c-45.61,41.64 -101.63,71.38 -168.06,89.23 -66.43,17.85 -144.26,15.86 -233.49,-5.95 -53.54,-11.9 -99.15,-32.72 -136.82,-62.46 -37.68,-29.75 -68.41,-64.45 -92.21,-104.11 -23.8,-39.66 -41.15,-83.28 -52.05,-130.87 -10.91,-47.59 -14.38,-96.18 -10.41,-145.75 3.96,-57.5 16.36,-113.52 37.18,-168.05 20.82,-54.53 49.57,-103.12 86.26,-145.75 36.68,-42.63 81.3,-76.34 133.84,-101.13 52.55,-24.79 111.55,-37.18 176.98,-37.18 47.59,1.98 91.22,12.39 130.88,31.23 39.66,18.84 76.34,43.13 110.05,72.87 -1.98,-27.76 -3.47,-56.51 -4.46,-86.25 -0.99,-29.75 -1.49,-59.49 -1.49,-89.24zm-340.07 823.92c39.66,15.86 78.32,20.32 116.99,13.38 38.17,-6.94 73.37,-21.31 104.6,-43.13 31.73,-21.81 59.49,-49.57 83.28,-83.28 23.3,-33.71 40.16,-69.4 50.07,-107.08l-5.95 -166.57c-15.86,-55.52 -39.65,-100.14 -72.37,-133.85 -32.72,-33.71 -68.41,-57.01 -108.07,-69.89 -39.17,-12.89 -80.31,-15.87 -122.95,-8.93 -42.13,6.94 -80.8,23.3 -115.01,49.08 -34.7,25.78 -62.96,61.97 -84.27,108.57 -21.81,46.6 -31.73,102.61 -29.75,168.05 1.99,57.51 17.35,111.54 45.61,162.11 28.75,50.56 74.86,87.74 137.82,111.54zm815.98 -770.38c0,-25.78 7.44,-44.61 21.81,-56.51 14.38,-11.9 31.23,-17.85 49.58,-17.85 18.34,0 35.19,5.95 49.57,17.85 14.38,11.9 21.81,30.73 21.81,56.51l0 136.83c31.73,-29.75 67.92,-53.05 108.57,-69.9 40.65,-16.86 81.8,-25.29 123.44,-25.29 41.64,0 82.79,9.92 123.44,29.75 40.65,19.83 75.84,50.56 105.59,92.21 13.88,21.81 19.83,42.63 17.84,62.46 -1.98,19.83 -8.92,35.2 -20.82,46.1 -11.89,10.91 -27.26,15.37 -46.1,13.39 -18.84,-1.99 -37.18,-13.88 -55.03,-35.7 -43.62,-55.52 -96.17,-79.81 -157.64,-72.87 -61.47,6.94 -111.05,45.11 -148.72,114.52 -15.87,33.71 -27.27,73.36 -34.21,118.97 -6.94,45.61 -11.4,94.19 -13.38,145.75l2.97 407.49c0,21.82 -7.93,37.68 -23.3,47.6 -15.86,9.91 -32.22,14.87 -49.57,14.87 -17.35,0 -34.21,-4.96 -49.57,-14.87 -15.37,-9.92 -23.3,-25.78 -23.3,-47.6l-2.98 -963.71zm1576.45 -654.37c1.98,-25.78 9.91,-45.11 23.79,-58 13.88,-12.89 29.75,-19.33 47.59,-19.33 17.85,0 34.21,6.44 49.08,19.33 14.87,12.89 23.3,32.22 25.28,58 -5.95,144.76 -9.91,282.57 -11.9,413.44 -1.98,130.88 -2.47,260.76 -1.48,389.65 0.99,128.9 2.48,259.27 4.46,391.14 1.98,131.87 3.96,270.18 5.95,414.93 -3.97,21.81 -12.89,38.17 -26.77,49.08 -13.88,10.91 -29.25,16.36 -46.11,16.36 -16.85,0 -32.22,-5.45 -46.1,-16.36 -13.88,-10.91 -22.8,-27.27 -26.77,-49.08 0,-21.81 -0.49,-43.62 -1.49,-65.44 -0.99,-21.81 -1.48,-43.62 -1.48,-65.43 -63.46,61.47 -140.3,102.12 -230.52,121.95 -90.22,19.83 -177.47,16.85 -261.75,-8.92 -84.27,-25.78 -157.64,-74.86 -220.11,-147.24 -62.46,-72.38 -98.65,-171.03 -108.56,-295.95 -5.95,-138.81 19.83,-250.35 77.33,-334.63 57.51,-84.27 129.39,-142.27 215.65,-174 86.26,-31.73 176.98,-38.17 272.16,-19.33 95.18,18.83 177.47,62.96 246.87,132.36 -1.98,-120.96 -1.48,-242.42 1.49,-364.37 2.98,-121.95 7.44,-251.34 13.39,-388.16zm-14.88 1139.2c-1.98,-89.23 -21.31,-163.09 -58,-221.59 -36.68,-58.5 -80.8,-101.63 -132.36,-129.39 -51.56,-27.76 -107.08,-40.15 -166.57,-37.18 -59.49,2.98 -113.02,20.33 -160.62,52.05 -47.59,31.73 -85.76,77.83 -114.51,138.31 -28.75,60.48 -38.17,135.34 -28.26,224.57 7.93,75.35 30.24,136.33 66.93,182.93 36.68,46.6 79.31,79.81 127.9,99.64 48.58,19.83 100.63,27.27 156.15,22.31 55.53,-4.96 106.09,-20.82 151.7,-47.59 45.61,-26.77 83.28,-64.45 113.03,-113.03 29.74,-48.58 44.61,-105.59 44.61,-171.03z"/>
    </g>
   </g>
  </g>
 </g>
</svg>
