<?xml version="1.0" encoding="UTF-8"?>
<!DOCTYPE svg PUBLIC "-//W3C//DTD SVG 1.1//EN" "http://www.w3.org/Graphics/SVG/1.1/DTD/svg11.dtd">
<!-- Creator: CorelDRAW 2020 (64 Bit) -->
<svg xmlns="http://www.w3.org/2000/svg" xml:space="preserve" width="60mm" height="60mm" version="1.1" shape-rendering="geometricPrecision" text-rendering="geometricPrecision" image-rendering="optimizeQuality" fill-rule="evenodd" clip-rule="evenodd"
viewBox="0 0 6000 6000"
 xmlns:xlink="http://www.w3.org/1999/xlink"
 xmlns:xodm="http://www.corel.com/coreldraw/odm/2003">
 <g id="Camada_x0020_1">
  <metadata id="CorelCorpID_0Corel-Layer"/>
  <path fill="#96989A" d="M2613.47 3777.15l761.72 0 0 1337.9 -761.72 0 0 -1337.9zm302.98 -3271.48l127.86 0c84.6,8.47 166.85,33.67 236.52,74.83 62.37,36.85 381.98,340.71 463.13,415.77 101.62,93.99 195.69,194.06 297.61,288.33l151.29 141.68c29.02,27.93 48.45,37.77 78.41,68.08l224.53 214.92c24.92,24.93 47.16,50.64 73.68,72.81l829.68 781.64c61.81,60.87 90.51,130.61 95.17,196.43l0 38.89c-8.18,113.6 -87.02,206.62 -185.55,206.62l-576.17 0 0 1806.64c0,229.58 -37.21,351.46 -140.69,484.31 -76.42,98.1 -237.1,209.05 -406.18,209.05l-2382.82 0c-172.51,0 -326.15,-111.43 -407.42,-207.81 -108.75,-128.98 -139.45,-299.76 -139.45,-475.78l0 -1816.41 -585.94 0c-104.17,0 -175.78,-130.87 -175.78,-273.44 0,-92.34 61.37,-134.61 109.86,-183.1l518.02 -497.61c93.53,-78.18 152.95,-154.62 227.37,-212.08l446.16 -422.98c253.84,-255.13 560.7,-532.66 820.17,-781.4 78.7,-75.45 187.13,-117.91 300.54,-129.39zm48.58 449.22c141.56,0 190.19,109.73 319.39,217.72l498.49 478.08c282.54,283.47 611.18,572.12 893.55,854.49l114.75 109.87c-209.35,0 -422.11,-39.51 -449.46,88.29 -8.32,38.88 -1.38,39.42 0.28,86.89 1.45,41.63 -1.58,66.42 -6.01,102.69l5.97 132.28c0,41.24 -7.1,54.3 -7.83,79.04l7.83 116.27c0,41.25 -7.1,54.3 -7.83,79.04l7.83 116.28c0,41.24 -7.1,54.3 -7.83,79.04l7.83 116.27c0,41.24 -7.1,54.3 -7.83,79.04l7.83 116.27c0,41.24 -7.1,54.3 -7.83,79.04l7.83 116.27c0,41.25 -7.1,54.31 -7.83,79.04l7.83 116.28c0,41.24 -7.1,54.3 -7.83,79.03l7.83 116.28c0,41.24 -7.1,54.3 -7.83,79.04l7.83 116.27c0,41.24 -7.1,54.3 -7.83,79.04l7.83 116.27c0,98.96 1.27,227.47 -70.78,290.56 -17.54,15.36 -65.93,41.48 -95.24,41.48l-410.16 0 0 -1533.21c0,-66.89 -16.94,-98.85 -50.83,-134.71 -30.84,-32.63 -74.7,-60.6 -134.71,-60.6l-1171.88 0c-101.72,0 -185.54,83 -185.54,185.55l0 1542.97 -410.16 0c-227.16,0 -166.02,-458 -166.02,-615.24l0.56 -1758.37c-0.09,-74.58 -18.91,-102.03 -78.77,-116.54 -81.15,-19.67 -285.33,-9.85 -390.54,-9.85l270.8 -266.31c24.08,-23.19 35.21,-26.58 58.92,-48.51 38.19,-35.33 70.04,-70.29 107.29,-107.55l436.25 -423.12c102.37,-79.04 182.6,-183.11 271.64,-265.48l385.87 -366.08c84.74,-84.81 155.93,-183.11 256.34,-183.11z"/>
 </g>
</svg>
