<?xml version="1.0" encoding="UTF-8"?>
<!DOCTYPE svg PUBLIC "-//W3C//DTD SVG 1.1//EN" "http://www.w3.org/Graphics/SVG/1.1/DTD/svg11.dtd">
<!-- Creator: CorelDRAW 2020 (64 Bit) -->
<svg xmlns="http://www.w3.org/2000/svg" xml:space="preserve" width="140mm" height="40mm" version="1.1" shape-rendering="geometricPrecision" text-rendering="geometricPrecision" image-rendering="optimizeQuality" fill-rule="evenodd" clip-rule="evenodd"
viewBox="0 0 14000 4000"
 xmlns:xlink="http://www.w3.org/1999/xlink"
 xmlns:xodm="http://www.corel.com/coreldraw/odm/2003">
 <g id="Camada_x0020_1">
  <metadata id="CorelCorpID_0Corel-Layer"/>
  <g id="_2387829578672">
   <g id="_1472075105728">
    <path fill="#373435" fill-rule="nonzero" d="M9925.39 1850.3c1.41,182.89 18.36,255.63 46.61,322.01 28.25,66.38 64.97,121.46 110.16,165.24 45.19,43.78 98.86,76.26 161,97.45 62.14,21.18 129.94,24.71 203.38,10.59 87.56,-14.13 165.95,-45.2 235.15,-93.21 69.2,-48.02 140.52,-118.64 213.96,-211.85 22.6,-25.42 48.02,-39.55 76.27,-42.37 28.24,-2.83 52.96,2.82 74.15,16.95 21.18,14.12 36.01,33.19 44.48,57.2 8.48,24.01 5.65,50.13 -8.47,78.38 -96.04,124.28 -192.78,216.08 -290.23,275.4 -97.45,59.32 -195.61,98.86 -294.47,118.64 -104.51,19.77 -204.08,16.24 -298.7,-10.6 -94.63,-26.83 -177.96,-73.44 -249.98,-139.81 -72.03,-66.38 -129.23,-150.42 -171.6,-252.11 -42.37,-101.68 -63.56,-217.49 -63.56,-347.43 0,-93.21 10.6,-185.01 31.78,-275.4 21.19,-90.38 54.38,-173 99.57,-247.86 45.2,-74.85 103.81,-138.41 175.83,-190.66 72.03,-52.26 160.3,-85.44 264.81,-99.57 87.57,-11.3 175.13,-6.36 262.69,14.83 87.57,21.19 166.66,57.2 237.27,108.04 70.62,50.85 129.94,115.81 177.95,194.9 48.02,79.09 79.09,170.89 93.22,275.41 5.65,48.01 -5.65,80.5 -33.9,97.44 -39.54,22.6 -108.04,43.79 -205.49,63.56 -11.3,-53.67 -9.89,-319.89 -42.37,-366.5 -32.48,-46.6 -73.44,-85.44 -122.87,-116.51 -49.43,-31.07 -105.92,-52.26 -169.48,-63.56 -63.55,-11.3 -132.05,-9.88 -205.49,4.24 -56.49,11.3 -105.22,31.78 -146.18,61.44 -40.95,29.65 -75.56,64.26 -103.8,103.8 -28.25,39.54 -50.14,84.03 -65.67,133.46 -15.54,49.44 -26.13,100.98 -36.02,258.46z"/>
    <path fill="#373435" fill-rule="nonzero" d="M1581.74 729.64c2.83,36.72 -4.23,65.68 -21.18,86.86 -16.95,21.19 -38.13,33.9 -63.55,38.13 -25.43,4.24 -49.43,-1.41 -72.03,-16.94 -22.6,-15.54 -38.13,-40.26 -46.61,-74.15 -8.47,-45.19 -24.71,-92.51 -48.72,-141.94 -24.01,-49.43 -55.08,-93.21 -93.21,-131.34 -38.15,-38.13 -81.22,-68.5 -129.24,-91.09 -48.02,-22.6 -98.86,-32.49 -152.53,-29.66 -81.91,8.47 -153.94,45.19 -216.08,110.16 -62.14,64.96 -113.69,146.88 -154.65,245.74 -40.95,98.86 -72.73,206.9 -95.33,324.12 -22.59,117.22 -35.3,230.91 -38.13,341.07 -2.82,53.67 -0.7,117.22 6.36,190.66 7.06,73.44 19.06,149.7 36.01,228.79 16.95,79.09 40.25,156.77 69.91,233.03 29.66,76.27 66.38,144.76 110.16,205.49 43.78,60.73 96.04,108.75 156.76,144.06 60.73,35.31 130.64,51.55 209.73,48.72 121.46,-2.82 235.16,-50.13 341.08,-141.93 105.92,-91.8 188.54,-205.49 247.86,-341.07 16.95,-33.9 38.84,-55.79 65.67,-65.68 26.84,-9.88 52.26,-10.59 76.27,-2.12 24.01,8.48 42.37,24.72 55.08,48.73 12.71,24.01 13.41,52.96 2.11,86.86 -31.07,93.21 -74.85,177.95 -131.34,254.21 -56.49,76.26 -120.75,141.23 -192.78,194.9 -72.03,53.66 -148.29,95.33 -228.79,124.99 -80.51,29.65 -160.31,45.9 -239.4,48.72 -149.7,5.65 -275.39,-33.19 -377.08,-116.51 -101.69,-83.33 -183.6,-187.13 -245.74,-311.42 -62.14,-124.28 -105.92,-259.86 -131.34,-406.74 -25.43,-146.88 -38.14,-282.46 -38.14,-406.74 0,-146.88 13.42,-292.35 40.25,-436.4 26.84,-144.06 68.5,-273.28 124.99,-387.68 56.5,-114.4 127.82,-209.73 213.97,-285.99 86.15,-76.26 189.95,-122.87 311.41,-139.82 76.26,-8.47 150.41,2.12 222.44,31.78 72.03,29.66 137.71,72.03 197.02,127.11 59.32,55.08 109.45,119.34 150.41,192.78 40.96,73.44 67.09,146.87 78.38,220.31z"/>
    <path fill="#373435" fill-rule="nonzero" d="M3005.36 1127.91c2.82,-36.72 14.83,-63.55 36.01,-80.5 21.18,-16.95 44.49,-25.42 69.91,-25.42 25.42,0 48.02,8.47 67.79,25.42 19.77,16.95 31.07,43.78 33.89,80.5 8.48,240.09 14.13,480.18 16.95,720.28 2.83,240.09 12.71,488.65 29.66,745.69 -2.82,28.25 -14.83,50.14 -36.01,65.67 -21.19,15.54 -43.78,23.31 -67.79,23.31 -24.01,0 -46.61,-7.07 -67.79,-21.19 -21.19,-14.12 -33.19,-36.72 -36.02,-67.79l-12.71 -207.61c-64.96,59.32 -144.76,101.69 -239.38,127.11 -94.63,25.42 -205.49,22.6 -332.6,-8.47 -76.26,-16.95 -141.23,-46.61 -194.9,-88.98 -53.66,-42.37 -97.45,-91.8 -131.34,-148.29 -33.9,-56.49 -58.61,-118.63 -74.15,-186.42 -15.53,-67.8 -20.48,-137 -14.83,-207.61 5.65,-81.92 23.31,-161.71 52.97,-239.39 29.65,-77.67 70.61,-146.88 122.87,-207.61 52.25,-60.72 115.8,-108.74 190.66,-144.05 74.85,-35.31 158.88,-52.96 252.09,-52.96 67.79,2.82 129.93,17.65 186.42,44.49 56.5,26.83 108.75,61.43 156.77,103.8 -2.82,-39.54 -4.94,-80.5 -6.36,-122.87 -1.41,-42.37 -2.11,-84.74 -2.11,-127.11zm-484.42 1173.62c56.49,22.6 111.57,28.96 166.65,19.07 54.37,-9.89 104.51,-30.36 149,-61.43 45.19,-31.08 84.73,-70.62 118.63,-118.64 33.19,-48.02 57.2,-98.86 71.32,-152.53l-8.47 -237.26c-22.6,-79.09 -56.49,-142.65 -103.1,-190.66 -46.61,-48.02 -97.45,-81.21 -153.94,-99.57 -55.79,-18.36 -114.4,-22.6 -175.13,-12.71 -60.02,9.88 -115.1,33.19 -163.82,69.91 -49.43,36.72 -89.68,88.27 -120.05,154.64 -31.07,66.38 -45.19,146.18 -42.37,239.39 2.83,81.91 24.72,158.88 64.97,230.91 40.95,72.03 106.63,124.99 196.31,158.88z"/>
    <path fill="#373435" fill-rule="nonzero" d="M4772.86 272.06c2.81,-36.72 14.03,-64.26 33.67,-82.62 19.64,-18.36 42.1,-27.54 67.35,-27.54 25.25,0 48.4,9.18 69.45,27.54 21.04,18.36 32.97,45.9 35.78,82.62 -8.42,206.19 -14.03,402.5 -16.84,588.93 -2.81,186.42 -3.51,371.43 -2.11,555.03 1.41,183.6 3.51,369.32 6.32,557.15 2.8,187.84 5.61,384.86 8.41,591.05 -5.61,31.07 -18.24,54.38 -37.88,69.91 -19.64,15.54 -41.38,23.3 -65.24,23.3 -23.85,0 -45.6,-7.76 -65.24,-23.3 -19.64,-15.53 -32.27,-38.84 -37.88,-69.91 0,-31.07 -0.7,-62.14 -2.1,-93.21 -1.41,-31.07 -2.11,-62.14 -2.11,-93.21 -89.8,87.56 -198.53,145.47 -326.21,173.71 -127.67,28.25 -251.14,24.01 -370.4,-12.71 -119.26,-36.72 -223.08,-106.63 -311.48,-209.73 -88.38,-103.09 -139.6,-243.62 -153.63,-421.57 -8.42,-197.72 28.06,-356.6 109.43,-476.65 81.39,-120.04 183.11,-202.66 305.17,-247.86 122.07,-45.19 250.44,-54.37 385.13,-27.54 134.7,26.84 251.15,89.68 349.36,188.54 -2.81,-172.3 -2.1,-345.3 2.11,-519.02 4.2,-173.71 10.52,-358.01 18.94,-552.91zm-21.05 1622.73c-2.81,-127.11 -30.17,-232.32 -82.07,-315.65 -51.92,-83.32 -114.35,-144.76 -187.31,-184.3 -72.96,-39.55 -151.53,-57.2 -235.71,-52.96 -84.19,4.23 -159.95,28.95 -227.29,74.14 -67.35,45.2 -121.37,110.87 -162.05,197.02 -40.7,86.15 -54.03,192.78 -39.99,319.88 11.22,107.34 42.79,194.2 94.71,260.57 51.9,66.38 112.23,113.69 180.98,141.94 68.76,28.25 142.41,38.84 220.98,31.78 78.57,-7.07 150.13,-29.66 214.67,-67.79 64.54,-38.14 117.86,-91.8 159.94,-161.01 42.09,-69.2 63.14,-150.41 63.14,-243.62z"/>
    <path fill="#373435" fill-rule="nonzero" d="M6636.42 1771.92c-39.55,22.6 -108.04,43.78 -205.49,63.56 -97.45,19.77 -202.67,38.13 -315.65,55.07 -112.98,16.95 -223.14,31.08 -330.48,42.37 -107.33,11.3 -190.66,18.36 -249.97,21.19 5.64,79.09 22.59,151.82 50.84,218.2 28.24,66.38 64.96,121.46 110.16,165.24 45.19,43.78 98.86,76.26 161,97.45 62.14,21.18 129.93,24.71 203.37,10.59 87.56,-14.12 165.95,-45.19 235.15,-93.21 69.2,-48.02 140.52,-118.64 213.96,-211.85 22.6,-25.42 48.02,-39.54 76.27,-42.37 28.24,-2.82 52.96,2.83 74.14,16.95 21.19,14.12 36.02,33.19 44.49,57.2 8.47,24.01 5.65,50.14 -8.47,78.38 -96.04,124.28 -192.78,216.08 -290.23,275.4 -97.45,59.32 -195.61,98.86 -294.47,118.63 -104.51,19.78 -204.07,16.24 -298.7,-10.59 -94.62,-26.83 -177.95,-73.44 -249.98,-139.82 -72.02,-66.37 -129.22,-150.41 -171.59,-252.09 -42.37,-101.69 -63.55,-217.5 -63.55,-347.43 0,-93.21 10.59,-185.01 31.77,-275.4 21.19,-90.38 54.38,-173 99.57,-247.86 45.19,-74.85 103.8,-138.4 175.83,-190.66 72.03,-52.25 160.3,-85.44 264.81,-99.56 87.56,-11.3 175.12,-6.36 262.69,14.83 87.56,21.18 166.65,57.19 237.26,108.04 70.62,50.84 129.93,115.81 177.95,194.89 48.02,79.09 79.09,170.89 93.21,275.4 5.65,48.02 -5.64,80.5 -33.89,97.45zm-745.7 -478.77c-56.49,11.3 -105.21,31.78 -146.17,61.44 -40.96,29.66 -75.56,64.26 -103.8,103.8 -28.25,39.55 -50.14,84.03 -65.67,133.46 -15.54,49.43 -26.13,100.98 -31.78,154.65 161,0 314.24,-12.71 459.7,-38.13 145.47,-25.42 295.88,-55.08 451.23,-88.98 -11.3,-53.66 -33.19,-103.8 -65.67,-150.41 -32.48,-46.6 -73.44,-85.44 -122.87,-116.51 -49.43,-31.07 -105.92,-52.26 -169.48,-63.55 -63.55,-11.3 -132.05,-9.89 -205.49,4.23zm1160.92 -88.97c0,-36.72 10.59,-63.56 31.07,-80.5 20.47,-16.95 44.48,-25.43 70.61,-25.43 26.13,0 50.14,8.48 70.62,25.43 20.47,16.94 31.07,43.78 31.07,80.5l0 194.89c45.19,-42.36 96.74,-75.55 154.64,-99.56 57.91,-24.01 116.52,-36.02 175.83,-36.02 59.32,0 117.93,14.13 175.84,42.37 57.9,28.25 108.04,72.03 150.41,131.35 19.77,31.07 28.24,60.73 25.42,88.97 -2.83,28.25 -12.71,50.14 -29.66,65.67 -16.95,15.54 -38.84,21.89 -65.67,19.07 -26.84,-2.83 -52.96,-19.77 -78.39,-50.84 -62.14,-79.09 -136.99,-113.69 -224.55,-103.81 -87.56,9.89 -158.18,64.26 -211.85,163.12 -22.59,48.02 -38.83,104.51 -48.72,169.48 -9.89,64.97 -16.24,134.17 -19.07,207.61l4.24 580.45c0,31.07 -11.3,53.67 -33.19,67.79 -22.6,14.13 -45.9,21.19 -70.61,21.19 -24.72,0 -48.73,-7.06 -70.62,-21.19 -21.89,-14.12 -33.19,-36.72 -33.19,-67.79l-4.23 -1372.75z"/>
    <path fill="#373435" fill-rule="nonzero" d="M9281.93 2482.53c-8.54,-247.64 -8.54,-349.28 -8.54,-446.03 0,-96.75 0,-193.51 0,-290.26 0,-96.75 0.57,-195.72 1.71,-296.91 1.14,-101.19 1.71,-209.48 1.71,-324.87 2.28,-23.08 11.95,-40.39 29.02,-51.93 17.07,-11.54 35.84,-17.31 56.33,-17.31 20.48,0 38.69,5.77 54.63,17.31 15.93,11.54 25.03,28.85 27.3,51.93l0 1451.28c0,15.97 -6.26,29.29 -18.77,39.94 -12.52,10.65 -27.32,18.64 -44.38,23.97 -17.07,5.32 -34.14,6.65 -51.21,3.99 -17.08,-2.66 -30.16,-9.32 -47.8,-161.11zm-952.51 -1236.91l1.71 1335.44c0,24.85 -8.54,43.49 -25.61,55.92 -17.07,12.43 -36.41,18.2 -58.03,17.31 -21.63,-0.89 -40.97,-7.54 -58.04,-19.97 -17.07,-12.43 -25.6,-30.18 -25.6,-53.26l0 -1440.62c0,-17.76 6.25,-32.41 18.77,-43.94 12.52,-11.54 27.31,-18.2 44.38,-19.98 17.07,-1.77 34.71,0.45 52.92,6.66 18.21,6.21 34.14,17.31 49.5,162.44z"/>
    <path fill="#373435" fill-rule="nonzero" d="M11904.05 1369.4l16.95 1224.48c0.43,31.19 -14.13,53.67 -33.9,67.79 -19.77,14.13 -41.66,21.19 -65.67,21.19 -24.01,0 -47.31,-7.06 -69.91,-21.19 -22.6,-14.12 -35.31,-36.72 -38.13,-67.79l-16.95 -1216 -4.24 -190.66 -8.47 -749.94c-0.41,-36.72 10.59,-63.56 31.78,-80.51 21.18,-16.94 44.48,-25.42 69.9,-25.42 25.43,0 49.44,8.48 72.03,25.42 22.6,16.95 33.9,43.79 33.9,80.51l8.47 745.7 4.24 186.42z"/>
    <path fill="#373435" fill-rule="nonzero" d="M13488.66 1127.91c2.82,-36.72 14.83,-63.55 36.01,-80.5 21.18,-16.95 44.49,-25.42 69.91,-25.42 25.42,0 48.02,8.47 67.79,25.42 19.77,16.95 31.07,43.78 33.89,80.5 8.48,240.09 14.13,480.18 16.95,720.28 2.83,240.09 12.71,488.65 29.66,745.69 -2.82,28.25 -14.83,50.14 -36.01,65.67 -21.19,15.54 -43.78,23.31 -67.79,23.31 -24.01,0 -46.61,-7.07 -67.79,-21.19 -21.19,-14.12 -33.19,-36.72 -36.02,-67.79l-12.71 -207.61c-64.96,59.32 -144.76,101.69 -239.38,127.11 -94.63,25.42 -205.49,22.6 -332.6,-8.47 -76.26,-16.95 -141.23,-46.61 -194.9,-88.98 -53.66,-42.37 -97.45,-91.8 -131.34,-148.29 -33.9,-56.49 -58.61,-118.63 -74.15,-186.42 -15.53,-67.8 -20.48,-137 -14.83,-207.61 5.65,-81.92 23.31,-161.71 52.97,-239.39 29.65,-77.67 70.61,-146.88 122.87,-207.61 52.25,-60.72 115.8,-108.74 190.66,-144.05 74.85,-35.31 158.88,-52.96 252.09,-52.96 67.79,2.82 129.93,17.65 186.42,44.49 56.5,26.83 108.75,61.43 156.77,103.8 -2.82,-39.54 -4.94,-80.5 -6.36,-122.87 -1.41,-42.37 -2.11,-84.74 -2.11,-127.11zm-484.42 1173.62c56.49,22.6 111.57,28.96 166.65,19.07 54.37,-9.89 104.51,-30.36 149,-61.43 45.19,-31.08 84.73,-70.62 118.63,-118.64 33.19,-48.02 57.2,-98.86 71.32,-152.53l-8.47 -237.26c-22.6,-79.09 -56.49,-142.65 -103.1,-190.66 -46.61,-48.02 -97.45,-81.21 -153.94,-99.57 -55.79,-18.36 -114.4,-22.6 -175.13,-12.71 -60.02,9.88 -115.1,33.19 -163.82,69.91 -49.43,36.72 -89.68,88.27 -120.05,154.64 -31.07,66.38 -45.19,146.18 -42.37,239.39 2.83,81.91 24.72,158.88 64.97,230.91 40.95,72.03 106.63,124.99 196.31,158.88z"/>
    <path fill="#ED3237" d="M8011.96 1341.65c672.16,78.61 1027.48,846.8 1420.2,1533.57 818.45,-952.56 3084.12,-1818.2 4284.46,-2118.36 -866.87,133.62 -3023.2,628.97 -4272.53,1640.99 -321.51,-789.12 -816.23,-1231.79 -1455.99,-1384.4l23.86 328.2z"/>
   </g>
   <path fill="#96989A" fill-rule="nonzero" d="M1472.4 3638.8l119.38 -11.85c7.2,39.93 21.59,69.14 43.47,87.91 21.87,18.77 51.36,28.08 88.47,28.08 39.23,0 68.87,-8.32 88.76,-24.97 19.9,-16.65 29.92,-36.13 29.92,-58.42 0,-14.4 -4.24,-26.53 -12.56,-36.69 -8.33,-10.02 -23,-18.77 -43.89,-26.11 -14.25,-5.08 -46.7,-13.83 -97.5,-26.53 -65.34,-16.37 -111.2,-36.4 -137.59,-60.25 -37.11,-33.45 -55.6,-74.23 -55.6,-122.35 0,-30.9 8.75,-59.97 26.11,-86.92 17.5,-26.95 42.61,-47.41 75.49,-61.53 32.88,-14.11 72.39,-21.16 118.96,-21.16 75.78,0 132.93,16.79 171.17,50.52 38.38,33.72 58.42,78.59 60.4,134.9l-122.77 4.23c-5.22,-31.33 -16.37,-53.76 -33.45,-67.45 -17.07,-13.69 -42.75,-20.6 -76.9,-20.6 -35.28,0 -62.94,7.34 -82.83,22.01 -12.84,9.46 -19.34,22.01 -19.34,37.82 0,14.39 6.07,26.67 18.21,36.83 15.38,13.12 52.77,26.67 112.18,40.78 59.41,13.97 103.29,28.65 131.66,43.6 28.5,15.1 50.8,35.56 66.89,61.67 16.08,26.11 24.13,58.28 24.13,96.52 0,34.71 -9.6,67.31 -28.93,97.65 -19.33,30.34 -46.57,52.92 -81.85,67.59 -35.28,14.82 -79.3,22.16 -131.94,22.16 -76.62,0 -135.46,-17.64 -176.53,-53.06 -41.06,-35.28 -65.47,-86.78 -73.52,-154.38zm850.06 57.58l116 19.47c-14.82,42.47 -38.39,74.79 -70.42,97.08 -32.17,22.16 -72.39,33.31 -120.51,33.31 -76.34,0 -132.93,-24.98 -169.47,-74.93 -28.93,-40.08 -43.47,-90.6 -43.47,-151.7 0,-72.81 19.05,-129.96 57.01,-171.17 37.96,-41.34 86.08,-61.95 144.22,-61.95 65.19,0 116.7,21.59 154.52,64.78 37.67,43.18 55.74,109.36 54.04,198.54l-290.41 0c0.85,34.43 10.16,61.24 28.09,80.43 17.78,19.19 40.07,28.79 66.6,28.79 18.2,0 33.44,-4.94 45.72,-14.82 12.42,-9.87 21.73,-25.82 28.08,-47.83zm6.77 -117.69c-0.84,-33.73 -9.45,-59.41 -25.96,-76.91 -16.51,-17.64 -36.55,-26.38 -60.25,-26.38 -25.26,0 -46.15,9.31 -62.66,27.79 -16.51,18.49 -24.55,43.75 -24.27,75.5l173.14 0zm500.53 256.54l0 -65.76c-16.09,23.43 -37.11,42.05 -63.22,56.02 -26.11,13.83 -53.62,20.75 -82.55,20.75 -29.63,0 -56.16,-6.49 -79.59,-19.48 -23.56,-12.98 -40.5,-31.32 -50.94,-54.75 -10.58,-23.56 -15.8,-56.02 -15.8,-97.51l0 -278.69 115.99 0 0 202.35c0,61.95 2.12,99.77 6.49,113.74 4.24,13.97 12,25.12 23.43,33.16 11.29,8.18 25.68,12.28 43.18,12.28 19.89,0 37.67,-5.51 53.48,-16.37 15.8,-10.87 26.53,-24.41 32.31,-40.64 5.79,-16.23 8.75,-55.74 8.75,-118.82l0 -185.7 116 0 0 439.42 -107.53 0zm865.01 0l-107.53 0 0 -64.49c-17.92,25.12 -39.23,43.89 -63.64,56.59 -24.42,12.56 -49.11,18.91 -73.95,18.91 -50.65,0 -93.98,-20.32 -130.1,-61.1 -35.98,-40.79 -54.05,-97.51 -54.05,-170.47 0,-74.5 17.5,-131.23 52.64,-170.04 35.13,-38.8 79.44,-58.14 133.07,-58.14 49.1,0 91.72,20.47 127.56,61.25l0 -218.73 116 0 0 606.22zm-309.89 -228.18c0,46.99 6.5,81 19.34,102.03 18.76,30.48 44.87,45.72 78.45,45.72 26.67,0 49.39,-11.43 68.02,-34.29 18.77,-22.86 28.08,-56.87 28.08,-102.31 0,-50.66 -9.03,-87.07 -27.23,-109.36 -18.21,-22.3 -41.35,-33.44 -69.71,-33.44 -27.52,0 -50.52,11 -69.15,33.02 -18.48,22.01 -27.8,54.89 -27.8,98.63zm424.04 -270.51l0 -107.53 115.99 0 0 107.53 -115.99 0zm0 498.69l0 -439.42 115.99 0 0 439.42 -115.99 0zm321.59 -303.95l-104.99 -18.63c11.86,-42.9 32.32,-74.65 61.25,-95.25 28.92,-20.6 71.96,-30.91 128.97,-30.91 51.79,0 90.45,6.07 115.85,18.35 25.26,12.28 43.18,27.8 53.49,46.71 10.3,18.91 15.52,53.48 15.52,104l-1.7 135.46c0,38.53 1.84,67.03 5.51,85.38 3.67,18.34 10.58,37.96 20.74,58.84l-115.15 0c-2.96,-7.62 -6.77,-18.91 -11.14,-33.87 -1.84,-6.91 -3.25,-11.43 -4.1,-13.54 -19.75,19.47 -40.92,34 -63.5,43.74 -22.57,9.74 -46.56,14.68 -72.1,14.68 -45.02,0 -80.58,-12.28 -106.54,-36.83 -25.97,-24.42 -38.95,-55.46 -38.95,-93 0,-24.69 5.93,-46.85 17.78,-66.32 11.85,-19.33 28.36,-34.29 49.81,-44.59 21.31,-10.3 52.07,-19.33 92.29,-27.09 54.19,-10.16 91.86,-19.76 112.75,-28.51l0 -11.71c0,-22.58 -5.51,-38.66 -16.51,-48.4 -11.15,-9.6 -32.03,-14.39 -62.66,-14.39 -20.74,0 -36.83,4.09 -48.4,12.41 -11.71,8.19 -21.02,22.72 -28.22,43.47zm155.79 93.98c-14.82,4.93 -38.38,10.86 -70.7,17.78 -32.17,6.91 -53.34,13.68 -63.22,20.17 -15.1,10.87 -22.72,24.42 -22.72,40.93 0,16.37 6.07,30.34 18.21,42.19 12.13,11.85 27.51,17.78 46.28,17.78 20.89,0 40.92,-6.91 59.97,-20.6 13.97,-10.59 23.29,-23.29 27.66,-38.53 2.97,-9.87 4.52,-28.78 4.52,-56.58l0 -23.14zm-143.09 -286.18l57.57 -123.61 129.54 0 -114.3 123.61 -72.81 0zm482.74 496.15l-115.99 0 0 -439.42 107.53 0 0 62.37c18.48,-29.49 35.13,-48.83 49.95,-58 14.82,-9.17 31.61,-13.69 50.38,-13.69 26.53,0 52.07,7.34 76.62,21.88l-35.98 101.32c-19.62,-12.7 -37.82,-19.05 -54.61,-19.05 -16.37,0 -30.2,4.51 -41.49,13.4 -11.29,9.03 -20.18,25.12 -26.67,48.54 -6.49,23.43 -9.74,72.53 -9.74,147.18l0 135.47zm218.59 -498.69l0 -107.53 115.99 0 0 107.53 -115.99 0zm0 498.69l0 -439.42 115.99 0 0 439.42 -115.99 0zm208.14 -225.07c0,-38.67 9.45,-76.06 28.5,-112.19 19.05,-36.26 46,-63.78 80.86,-82.83 34.85,-19.05 73.66,-28.65 116.7,-28.65 66.46,0 120.79,21.59 163.26,64.78 42.48,43.32 63.65,97.79 63.65,163.83 0,66.6 -21.45,121.78 -64.21,165.52 -42.9,43.74 -96.8,65.62 -161.86,65.62 -40.21,0 -78.59,-9.18 -115.14,-27.38 -36.41,-18.2 -64.21,-44.87 -83.26,-80.15 -19.05,-35.14 -28.5,-78.04 -28.5,-128.55zm119.38 6.21c0,43.6 10.3,77.04 30.9,100.19 20.74,23.28 46.14,34.85 76.48,34.85 30.2,0 55.6,-11.57 76.06,-34.85 20.46,-23.15 30.76,-56.87 30.76,-101.04 0,-43.04 -10.3,-76.2 -30.76,-99.34 -20.46,-23.29 -45.86,-34.86 -76.06,-34.86 -30.34,0 -55.74,11.57 -76.48,34.86 -20.6,23.14 -30.9,56.58 -30.9,100.19zm1063.13 218.86l-107.53 0 0 -64.49c-17.92,25.12 -39.23,43.89 -63.64,56.59 -24.42,12.56 -49.11,18.91 -73.95,18.91 -50.65,0 -93.98,-20.32 -130.1,-61.1 -35.98,-40.79 -54.05,-97.51 -54.05,-170.47 0,-74.5 17.5,-131.23 52.64,-170.04 35.13,-38.8 79.44,-58.14 133.07,-58.14 49.1,0 91.72,20.47 127.56,61.25l0 -218.73 116 0 0 606.22zm-309.89 -228.18c0,46.99 6.5,81 19.34,102.03 18.76,30.48 44.87,45.72 78.45,45.72 26.67,0 49.39,-11.43 68.02,-34.29 18.77,-22.86 28.08,-56.87 28.08,-102.31 0,-50.66 -9.03,-87.07 -27.23,-109.36 -18.21,-22.3 -41.35,-33.44 -69.71,-33.44 -27.52,0 -50.52,11 -69.15,33.02 -18.48,22.01 -27.8,54.89 -27.8,98.63zm678.04 89.33l116 19.47c-14.82,42.47 -38.39,74.79 -70.42,97.08 -32.17,22.16 -72.39,33.31 -120.51,33.31 -76.34,0 -132.93,-24.98 -169.47,-74.93 -28.93,-40.08 -43.47,-90.6 -43.47,-151.7 0,-72.81 19.05,-129.96 57.01,-171.17 37.96,-41.34 86.08,-61.95 144.22,-61.95 65.19,0 116.7,21.59 154.52,64.78 37.67,43.18 55.74,109.36 54.04,198.54l-290.41 0c0.85,34.43 10.16,61.24 28.09,80.43 17.78,19.19 40.07,28.79 66.6,28.79 18.2,0 33.44,-4.94 45.72,-14.82 12.42,-9.87 21.73,-25.82 28.08,-47.83zm6.77 -117.69c-0.84,-33.73 -9.45,-59.41 -25.96,-76.91 -16.51,-17.64 -36.55,-26.38 -60.25,-26.38 -25.26,0 -46.15,9.31 -62.66,27.79 -16.51,18.49 -24.55,43.75 -24.27,75.5l173.14 0zm828.05 -52.49l-114.31 20.32c-3.81,-22.72 -12.55,-39.8 -26.24,-51.37 -13.69,-11.43 -31.33,-17.21 -53.06,-17.21 -28.93,0 -52.07,10.01 -69.29,30.05 -17.21,20.04 -25.82,53.48 -25.82,100.47 0,52.21 8.75,89.05 26.25,110.64 17.5,21.59 40.92,32.31 70.27,32.31 22.01,0 40.08,-6.35 54.05,-18.91 14.11,-12.56 23.99,-34.15 29.77,-64.91l114.3 19.47c-11.85,52.5 -34.57,92.15 -68.16,118.96 -33.58,26.81 -78.59,40.22 -135.18,40.22 -64.06,0 -115.29,-20.32 -153.39,-60.82 -38.24,-40.64 -57.29,-96.81 -57.29,-168.63 0,-72.67 19.19,-129.12 57.43,-169.62 38.24,-40.5 90.03,-60.68 155.37,-60.68 53.34,0 95.81,11.58 127.42,34.58 31.47,23 54.05,57.99 67.88,105.13zm88.19 309.03l0 -606.22 115.99 0 0 606.22 -115.99 0zm321.59 -303.95l-104.99 -18.63c11.86,-42.9 32.32,-74.65 61.25,-95.25 28.92,-20.6 71.96,-30.91 128.97,-30.91 51.79,0 90.45,6.07 115.85,18.35 25.26,12.28 43.18,27.8 53.49,46.71 10.3,18.91 15.52,53.48 15.52,104l-1.7 135.46c0,38.53 1.84,67.03 5.51,85.38 3.67,18.34 10.58,37.96 20.74,58.84l-115.15 0c-2.96,-7.62 -6.77,-18.91 -11.14,-33.87 -1.84,-6.91 -3.25,-11.43 -4.1,-13.54 -19.75,19.47 -40.92,34 -63.5,43.74 -22.57,9.74 -46.56,14.68 -72.1,14.68 -45.02,0 -80.58,-12.28 -106.54,-36.83 -25.97,-24.42 -38.95,-55.46 -38.95,-93 0,-24.69 5.93,-46.85 17.78,-66.32 11.85,-19.33 28.36,-34.29 49.81,-44.59 21.31,-10.3 52.07,-19.33 92.29,-27.09 54.19,-10.16 91.86,-19.76 112.75,-28.51l0 -11.71c0,-22.58 -5.51,-38.66 -16.51,-48.4 -11.15,-9.6 -32.03,-14.39 -62.66,-14.39 -20.74,0 -36.83,4.09 -48.4,12.41 -11.71,8.19 -21.02,22.72 -28.22,43.47zm155.79 93.98c-14.82,4.93 -38.38,10.86 -70.7,17.78 -32.17,6.91 -53.34,13.68 -63.22,20.17 -15.1,10.87 -22.72,24.42 -22.72,40.93 0,16.37 6.07,30.34 18.21,42.19 12.13,11.85 27.51,17.78 46.28,17.78 20.89,0 40.92,-6.91 59.97,-20.6 13.97,-10.59 23.29,-23.29 27.66,-38.53 2.97,-9.87 4.52,-28.78 4.52,-56.58l0 -23.14zm187.25 86.36l116.84 -17.78c4.94,22.43 14.96,39.51 30.2,51.08 15.1,11.71 36.41,17.5 63.64,17.5 30.06,0 52.64,-5.51 67.88,-16.51 10.16,-7.76 15.24,-18.21 15.24,-31.19 0,-8.75 -2.82,-16.09 -8.33,-21.87 -5.78,-5.51 -18.77,-10.73 -38.8,-15.38 -93.84,-20.75 -153.25,-39.66 -178.37,-56.73 -34.85,-23.85 -52.21,-56.87 -52.21,-99.06 0,-38.24 15.1,-70.27 45.16,-96.24 30.05,-25.96 76.62,-38.95 139.7,-38.95 60.11,0 104.84,9.88 134.05,29.5 29.21,19.75 49.39,48.82 60.4,87.35l-109.22 20.32c-4.66,-17.22 -13.69,-30.48 -26.81,-39.66 -13.13,-9.17 -31.89,-13.68 -56.31,-13.68 -30.76,0 -52.77,4.23 -66.18,12.84 -8.89,6.06 -13.26,13.97 -13.26,23.56 0,8.33 3.81,15.38 11.57,21.17 10.58,7.76 46.85,18.63 108.94,32.74 62.09,14.11 105.41,31.32 129.96,51.78 24.41,20.61 36.55,49.53 36.55,86.51 0,40.21 -16.79,74.93 -50.52,103.85 -33.58,28.93 -83.4,43.47 -149.44,43.47 -59.83,0 -107.24,-12.14 -142.24,-36.27 -34.85,-24.13 -57.71,-56.87 -68.44,-98.35zm470.89 0l116.84 -17.78c4.94,22.43 14.96,39.51 30.2,51.08 15.1,11.71 36.41,17.5 63.64,17.5 30.06,0 52.64,-5.51 67.88,-16.51 10.16,-7.76 15.24,-18.21 15.24,-31.19 0,-8.75 -2.82,-16.09 -8.33,-21.87 -5.78,-5.51 -18.77,-10.73 -38.8,-15.38 -93.84,-20.75 -153.25,-39.66 -178.37,-56.73 -34.85,-23.85 -52.21,-56.87 -52.21,-99.06 0,-38.24 15.1,-70.27 45.16,-96.24 30.05,-25.96 76.62,-38.95 139.7,-38.95 60.11,0 104.84,9.88 134.05,29.5 29.21,19.75 49.39,48.82 60.4,87.35l-109.22 20.32c-4.66,-17.22 -13.69,-30.48 -26.81,-39.66 -13.13,-9.17 -31.89,-13.68 -56.31,-13.68 -30.76,0 -52.77,4.23 -66.18,12.84 -8.89,6.06 -13.26,13.97 -13.26,23.56 0,8.33 3.81,15.38 11.57,21.17 10.58,7.76 46.85,18.63 108.94,32.74 62.09,14.11 105.41,31.32 129.96,51.78 24.41,20.61 36.55,49.53 36.55,86.51 0,40.21 -16.79,74.93 -50.52,103.85 -33.58,28.93 -83.4,43.47 -149.44,43.47 -59.83,0 -107.24,-12.14 -142.24,-36.27 -34.85,-24.13 -57.71,-56.87 -68.44,-98.35zm766.38 -15.24l116 19.47c-14.82,42.47 -38.39,74.79 -70.42,97.08 -32.17,22.16 -72.39,33.31 -120.51,33.31 -76.34,0 -132.93,-24.98 -169.47,-74.93 -28.93,-40.08 -43.47,-90.6 -43.47,-151.7 0,-72.81 19.05,-129.96 57.01,-171.17 37.96,-41.34 86.08,-61.95 144.22,-61.95 65.19,0 116.7,21.59 154.52,64.78 37.67,43.18 55.74,109.36 54.04,198.54l-290.41 0c0.85,34.43 10.16,61.24 28.09,80.43 17.78,19.19 40.07,28.79 66.6,28.79 18.2,0 33.44,-4.94 45.72,-14.82 12.42,-9.87 21.73,-25.82 28.08,-47.83zm6.77 -117.69c-0.84,-33.73 -9.45,-59.41 -25.96,-76.91 -16.51,-17.64 -36.55,-26.38 -60.25,-26.38 -25.26,0 -46.15,9.31 -62.66,27.79 -16.51,18.49 -24.55,43.75 -24.27,75.5l173.14 0zm418.26 31.47c0,-38.67 9.45,-76.06 28.5,-112.19 19.05,-36.26 46,-63.78 80.86,-82.83 34.85,-19.05 73.66,-28.65 116.7,-28.65 66.46,0 120.79,21.59 163.26,64.78 42.48,43.32 63.65,97.79 63.65,163.83 0,66.6 -21.45,121.78 -64.21,165.52 -42.9,43.74 -96.8,65.62 -161.86,65.62 -40.21,0 -78.59,-9.18 -115.14,-27.38 -36.41,-18.2 -64.21,-44.87 -83.26,-80.15 -19.05,-35.14 -28.5,-78.04 -28.5,-128.55zm119.38 6.21c0,43.6 10.3,77.04 30.9,100.19 20.74,23.28 46.14,34.85 76.48,34.85 30.2,0 55.6,-11.57 76.06,-34.85 20.46,-23.15 30.76,-56.87 30.76,-101.04 0,-43.04 -10.3,-76.2 -30.76,-99.34 -20.46,-23.29 -45.86,-34.86 -76.06,-34.86 -30.34,0 -55.74,11.57 -76.48,34.86 -20.6,23.14 -30.9,56.58 -30.9,100.19zm824.51 218.86l-116 0 0 -223.94c0,-47.42 -2.54,-78.04 -7.47,-91.87 -5.08,-13.97 -13.13,-24.69 -24.42,-32.45 -11.29,-7.76 -24.83,-11.57 -40.64,-11.57 -20.32,0 -38.52,5.5 -54.61,16.51 -16.22,11 -27.23,25.68 -33.16,43.74 -6.07,18.2 -9.03,51.79 -9.03,100.89l0 198.69 -115.99 0 0 -439.42 107.52 0 0 64.49c38.53,-49.25 86.93,-73.81 145.49,-73.81 25.68,0 49.25,4.66 70.56,13.83 21.44,9.32 37.53,21.03 48.4,35.28 11,14.4 18.62,30.62 22.86,48.83 4.37,18.2 6.49,44.16 6.49,78.03l0 272.77zm117.54 0l0 -606.22 115.99 0 0 606.22 -115.99 0zm235.23 -498.69l0 -107.53 115.99 0 0 107.53 -115.99 0zm0 498.69l0 -439.42 115.99 0 0 439.42 -115.99 0zm634.86 0l-116 0 0 -223.94c0,-47.42 -2.54,-78.04 -7.47,-91.87 -5.08,-13.97 -13.13,-24.69 -24.42,-32.45 -11.29,-7.76 -24.83,-11.57 -40.64,-11.57 -20.32,0 -38.52,5.5 -54.61,16.51 -16.22,11 -27.23,25.68 -33.16,43.74 -6.07,18.2 -9.03,51.79 -9.03,100.89l0 198.69 -115.99 0 0 -439.42 107.52 0 0 64.49c38.53,-49.25 86.93,-73.81 145.49,-73.81 25.68,0 49.25,4.66 70.56,13.83 21.44,9.32 37.53,21.03 48.4,35.28 11,14.4 18.62,30.62 22.86,48.83 4.37,18.2 6.49,44.16 6.49,78.03l0 272.77zm371.54 -138.85l116 19.47c-14.82,42.47 -38.39,74.79 -70.42,97.08 -32.17,22.16 -72.39,33.31 -120.51,33.31 -76.34,0 -132.93,-24.98 -169.47,-74.93 -28.93,-40.08 -43.47,-90.6 -43.47,-151.7 0,-72.81 19.05,-129.96 57.01,-171.17 37.96,-41.34 86.08,-61.95 144.22,-61.95 65.19,0 116.7,21.59 154.52,64.78 37.67,43.18 55.74,109.36 54.04,198.54l-290.41 0c0.85,34.43 10.16,61.24 28.09,80.43 17.78,19.19 40.07,28.79 66.6,28.79 18.2,0 33.44,-4.94 45.72,-14.82 12.42,-9.87 21.73,-25.82 28.08,-47.83zm6.77 -117.69c-0.84,-33.73 -9.45,-59.41 -25.96,-76.91 -16.51,-17.64 -36.55,-26.38 -60.25,-26.38 -25.26,0 -46.15,9.31 -62.66,27.79 -16.51,18.49 -24.55,43.75 -24.27,75.5l173.14 0zm254.99 100.75l-30.05 -308.04 0 -142.39 125.3 0 0 142.39 -29.63 308.04 -65.62 0zm-24.97 155.79l0 -115.99 115.99 0 0 115.99 -115.99 0z"/>
  </g>
 </g>
</svg>
