<?xml version="1.0" encoding="UTF-8"?>
<!DOCTYPE svg PUBLIC "-//W3C//DTD SVG 1.1//EN" "http://www.w3.org/Graphics/SVG/1.1/DTD/svg11.dtd">
<!-- Creator: CorelDRAW 2020 (64 Bit) -->
<svg xmlns="http://www.w3.org/2000/svg" xml:space="preserve" width="140mm" height="40mm" version="1.1" shape-rendering="geometricPrecision" text-rendering="geometricPrecision" image-rendering="optimizeQuality" fill-rule="evenodd" clip-rule="evenodd"
viewBox="0 0 14000 4000"
 xmlns:xlink="http://www.w3.org/1999/xlink"
 xmlns:xodm="http://www.corel.com/coreldraw/odm/2003">
 <g id="Camada_x0020_1">
  <metadata id="CorelCorpID_0Corel-Layer"/>
  <g id="_2387656330800">
   <g id="_1472075105728">
    <path fill="#373435" fill-rule="nonzero" d="M9930.59 2341.87c1.41,182.89 18.36,255.63 46.61,322.01 28.25,66.38 64.97,121.46 110.16,165.24 45.19,43.78 98.86,76.26 161,97.45 62.14,21.18 129.94,24.71 203.38,10.59 87.56,-14.13 165.95,-45.2 235.15,-93.21 69.2,-48.02 140.52,-118.64 213.96,-211.85 22.6,-25.42 48.02,-39.55 76.27,-42.37 28.24,-2.83 52.96,2.82 74.15,16.95 21.18,14.12 36.01,33.19 44.48,57.2 8.48,24.01 5.65,50.13 -8.47,78.38 -96.04,124.28 -192.78,216.08 -290.23,275.4 -97.45,59.32 -195.61,98.86 -294.47,118.64 -104.51,19.77 -204.08,16.24 -298.7,-10.6 -94.63,-26.83 -177.96,-73.44 -249.98,-139.81 -72.03,-66.38 -129.23,-150.42 -171.6,-252.11 -42.37,-101.68 -63.56,-217.49 -63.56,-347.43 0,-93.21 10.6,-185.01 31.78,-275.4 21.19,-90.38 54.38,-173 99.57,-247.86 45.2,-74.85 103.81,-138.41 175.83,-190.66 72.03,-52.26 160.3,-85.44 264.81,-99.57 87.57,-11.3 175.13,-6.36 262.69,14.83 87.57,21.19 166.66,57.2 237.27,108.04 70.62,50.85 129.94,115.81 177.95,194.9 48.02,79.09 79.09,170.89 93.22,275.41 5.65,48.01 -5.65,80.5 -33.9,97.44 -39.54,22.6 -108.04,43.79 -205.49,63.56 -11.3,-53.67 -9.89,-319.89 -42.37,-366.5 -32.48,-46.6 -73.44,-85.44 -122.87,-116.51 -49.43,-31.07 -105.92,-52.26 -169.48,-63.56 -63.55,-11.3 -132.05,-9.88 -205.49,4.24 -56.49,11.3 -105.22,31.78 -146.18,61.44 -40.95,29.65 -75.56,64.26 -103.8,103.8 -28.25,39.54 -50.14,84.03 -65.67,133.46 -15.54,49.44 -26.13,100.98 -36.02,258.46z"/>
    <path fill="#373435" fill-rule="nonzero" d="M1586.94 1221.21c2.83,36.72 -4.23,65.68 -21.18,86.86 -16.95,21.19 -38.13,33.9 -63.55,38.13 -25.43,4.24 -49.43,-1.41 -72.03,-16.94 -22.6,-15.54 -38.13,-40.26 -46.61,-74.15 -8.47,-45.19 -24.71,-92.51 -48.72,-141.94 -24.01,-49.43 -55.08,-93.21 -93.21,-131.34 -38.15,-38.13 -81.22,-68.5 -129.24,-91.09 -48.02,-22.6 -98.86,-32.49 -152.53,-29.66 -81.91,8.47 -153.94,45.19 -216.08,110.16 -62.14,64.96 -113.69,146.88 -154.65,245.74 -40.95,98.86 -72.73,206.9 -95.33,324.12 -22.59,117.22 -35.3,230.91 -38.13,341.07 -2.82,53.67 -0.7,117.22 6.36,190.66 7.06,73.44 19.06,149.7 36.01,228.79 16.95,79.09 40.25,156.77 69.91,233.03 29.66,76.27 66.38,144.76 110.16,205.49 43.78,60.73 96.04,108.75 156.76,144.06 60.73,35.31 130.64,51.55 209.73,48.72 121.46,-2.82 235.16,-50.13 341.08,-141.93 105.92,-91.8 188.54,-205.49 247.86,-341.07 16.95,-33.9 38.84,-55.79 65.67,-65.68 26.84,-9.88 52.26,-10.59 76.27,-2.12 24.01,8.48 42.37,24.72 55.08,48.73 12.71,24.01 13.41,52.96 2.11,86.86 -31.07,93.21 -74.85,177.95 -131.34,254.21 -56.49,76.26 -120.75,141.23 -192.78,194.9 -72.03,53.66 -148.29,95.33 -228.79,124.99 -80.51,29.65 -160.31,45.9 -239.4,48.72 -149.7,5.65 -275.39,-33.19 -377.08,-116.51 -101.69,-83.33 -183.6,-187.13 -245.74,-311.42 -62.14,-124.28 -105.92,-259.86 -131.34,-406.74 -25.43,-146.88 -38.14,-282.46 -38.14,-406.74 0,-146.88 13.42,-292.35 40.25,-436.4 26.84,-144.06 68.5,-273.28 124.99,-387.68 56.5,-114.4 127.82,-209.73 213.97,-285.99 86.15,-76.26 189.95,-122.87 311.41,-139.82 76.26,-8.47 150.41,2.12 222.44,31.78 72.03,29.66 137.71,72.03 197.02,127.11 59.32,55.08 109.45,119.34 150.41,192.78 40.96,73.44 67.09,146.87 78.38,220.31z"/>
    <path fill="#373435" fill-rule="nonzero" d="M3010.56 1619.48c2.82,-36.72 14.83,-63.55 36.01,-80.5 21.18,-16.95 44.49,-25.42 69.91,-25.42 25.42,0 48.02,8.47 67.79,25.42 19.77,16.95 31.07,43.78 33.89,80.5 8.48,240.09 14.13,480.18 16.95,720.28 2.83,240.09 12.71,488.65 29.66,745.69 -2.82,28.25 -14.83,50.14 -36.01,65.67 -21.19,15.54 -43.78,23.31 -67.79,23.31 -24.01,0 -46.61,-7.07 -67.79,-21.19 -21.19,-14.12 -33.19,-36.72 -36.02,-67.79l-12.71 -207.61c-64.96,59.32 -144.76,101.69 -239.38,127.11 -94.63,25.42 -205.49,22.6 -332.6,-8.47 -76.26,-16.95 -141.23,-46.61 -194.9,-88.98 -53.66,-42.37 -97.45,-91.8 -131.34,-148.29 -33.9,-56.49 -58.61,-118.63 -74.15,-186.42 -15.53,-67.8 -20.48,-137 -14.83,-207.61 5.65,-81.92 23.31,-161.71 52.97,-239.39 29.65,-77.67 70.61,-146.88 122.87,-207.61 52.25,-60.72 115.8,-108.74 190.66,-144.05 74.85,-35.31 158.88,-52.96 252.09,-52.96 67.79,2.82 129.93,17.65 186.42,44.49 56.5,26.83 108.75,61.43 156.77,103.8 -2.82,-39.54 -4.94,-80.5 -6.36,-122.87 -1.41,-42.37 -2.11,-84.74 -2.11,-127.11zm-484.42 1173.62c56.49,22.6 111.57,28.96 166.65,19.07 54.37,-9.89 104.51,-30.36 149,-61.43 45.19,-31.08 84.73,-70.62 118.63,-118.64 33.19,-48.02 57.2,-98.86 71.32,-152.53l-8.47 -237.26c-22.6,-79.09 -56.49,-142.65 -103.1,-190.66 -46.61,-48.02 -97.45,-81.21 -153.94,-99.57 -55.79,-18.36 -114.4,-22.6 -175.13,-12.71 -60.02,9.88 -115.1,33.19 -163.82,69.91 -49.43,36.72 -89.68,88.27 -120.05,154.64 -31.07,66.38 -45.19,146.18 -42.37,239.39 2.83,81.91 24.72,158.88 64.97,230.91 40.95,72.03 106.63,124.99 196.31,158.88z"/>
    <path fill="#373435" fill-rule="nonzero" d="M4778.06 763.63c2.81,-36.72 14.03,-64.26 33.67,-82.62 19.64,-18.36 42.1,-27.54 67.35,-27.54 25.25,0 48.4,9.18 69.45,27.54 21.04,18.36 32.97,45.9 35.78,82.62 -8.42,206.19 -14.03,402.5 -16.84,588.93 -2.81,186.42 -3.51,371.43 -2.11,555.03 1.41,183.6 3.51,369.32 6.32,557.15 2.8,187.84 5.61,384.86 8.41,591.05 -5.61,31.07 -18.24,54.38 -37.88,69.91 -19.64,15.54 -41.38,23.3 -65.24,23.3 -23.85,0 -45.6,-7.76 -65.24,-23.3 -19.64,-15.53 -32.27,-38.84 -37.88,-69.91 0,-31.07 -0.7,-62.14 -2.1,-93.21 -1.41,-31.07 -2.11,-62.14 -2.11,-93.21 -89.8,87.56 -198.53,145.47 -326.21,173.71 -127.67,28.25 -251.14,24.01 -370.4,-12.71 -119.26,-36.72 -223.08,-106.63 -311.48,-209.73 -88.38,-103.09 -139.6,-243.62 -153.63,-421.57 -8.42,-197.72 28.06,-356.6 109.43,-476.65 81.39,-120.04 183.11,-202.66 305.17,-247.86 122.07,-45.19 250.44,-54.37 385.13,-27.54 134.7,26.84 251.15,89.68 349.36,188.54 -2.81,-172.3 -2.1,-345.3 2.11,-519.02 4.2,-173.71 10.52,-358.01 18.94,-552.91zm-21.05 1622.73c-2.81,-127.11 -30.17,-232.32 -82.07,-315.65 -51.92,-83.32 -114.35,-144.76 -187.31,-184.3 -72.96,-39.55 -151.53,-57.2 -235.71,-52.96 -84.19,4.23 -159.95,28.95 -227.29,74.14 -67.35,45.2 -121.37,110.87 -162.05,197.02 -40.7,86.15 -54.03,192.78 -39.99,319.88 11.22,107.34 42.79,194.2 94.71,260.57 51.9,66.38 112.23,113.69 180.98,141.94 68.76,28.25 142.41,38.84 220.98,31.78 78.57,-7.07 150.13,-29.66 214.67,-67.79 64.54,-38.14 117.86,-91.8 159.94,-161.01 42.09,-69.2 63.14,-150.41 63.14,-243.62z"/>
    <path fill="#373435" fill-rule="nonzero" d="M6641.62 2263.49c-39.55,22.6 -108.04,43.78 -205.49,63.56 -97.45,19.77 -202.67,38.13 -315.65,55.07 -112.98,16.95 -223.14,31.08 -330.48,42.37 -107.33,11.3 -190.66,18.36 -249.97,21.19 5.64,79.09 22.59,151.82 50.84,218.2 28.24,66.38 64.96,121.46 110.16,165.24 45.19,43.78 98.86,76.26 161,97.45 62.14,21.18 129.93,24.71 203.37,10.59 87.56,-14.12 165.95,-45.19 235.15,-93.21 69.2,-48.02 140.52,-118.64 213.96,-211.85 22.6,-25.42 48.02,-39.54 76.27,-42.37 28.24,-2.82 52.96,2.83 74.14,16.95 21.19,14.12 36.02,33.19 44.49,57.2 8.47,24.01 5.65,50.14 -8.47,78.38 -96.04,124.28 -192.78,216.08 -290.23,275.4 -97.45,59.32 -195.61,98.86 -294.47,118.63 -104.51,19.78 -204.07,16.24 -298.7,-10.59 -94.62,-26.83 -177.95,-73.44 -249.98,-139.82 -72.02,-66.37 -129.22,-150.41 -171.59,-252.09 -42.37,-101.69 -63.55,-217.5 -63.55,-347.43 0,-93.21 10.59,-185.01 31.77,-275.4 21.19,-90.38 54.38,-173 99.57,-247.86 45.19,-74.85 103.8,-138.4 175.83,-190.66 72.03,-52.25 160.3,-85.44 264.81,-99.56 87.56,-11.3 175.12,-6.36 262.69,14.83 87.56,21.18 166.65,57.19 237.26,108.04 70.62,50.84 129.93,115.81 177.95,194.89 48.02,79.09 79.09,170.89 93.21,275.4 5.65,48.02 -5.64,80.5 -33.89,97.45zm-745.7 -478.77c-56.49,11.3 -105.21,31.78 -146.17,61.44 -40.96,29.66 -75.56,64.26 -103.8,103.8 -28.25,39.55 -50.14,84.03 -65.67,133.46 -15.54,49.43 -26.13,100.98 -31.78,154.65 161,0 314.24,-12.71 459.7,-38.13 145.47,-25.42 295.88,-55.08 451.23,-88.98 -11.3,-53.66 -33.19,-103.8 -65.67,-150.41 -32.48,-46.6 -73.44,-85.44 -122.87,-116.51 -49.43,-31.07 -105.92,-52.26 -169.48,-63.55 -63.55,-11.3 -132.05,-9.89 -205.49,4.23zm1160.92 -88.97c0,-36.72 10.59,-63.56 31.07,-80.5 20.47,-16.95 44.48,-25.43 70.61,-25.43 26.13,0 50.14,8.48 70.62,25.43 20.47,16.94 31.07,43.78 31.07,80.5l0 194.89c45.19,-42.36 96.74,-75.55 154.64,-99.56 57.91,-24.01 116.52,-36.02 175.83,-36.02 59.32,0 117.93,14.13 175.84,42.37 57.9,28.25 108.04,72.03 150.41,131.35 19.77,31.07 28.24,60.73 25.42,88.97 -2.83,28.25 -12.71,50.14 -29.66,65.67 -16.95,15.54 -38.84,21.89 -65.67,19.07 -26.84,-2.83 -52.96,-19.77 -78.39,-50.84 -62.14,-79.09 -136.99,-113.69 -224.55,-103.81 -87.56,9.89 -158.18,64.26 -211.85,163.12 -22.59,48.02 -38.83,104.51 -48.72,169.48 -9.89,64.97 -16.24,134.17 -19.07,207.61l4.24 580.45c0,31.07 -11.3,53.67 -33.19,67.79 -22.6,14.13 -45.9,21.19 -70.61,21.19 -24.72,0 -48.73,-7.06 -70.62,-21.19 -21.89,-14.12 -33.19,-36.72 -33.19,-67.79l-4.23 -1372.75z"/>
    <path fill="#373435" fill-rule="nonzero" d="M9287.13 2974.1c-8.54,-247.64 -8.54,-349.28 -8.54,-446.03 0,-96.75 0,-193.51 0,-290.26 0,-96.75 0.57,-195.72 1.71,-296.91 1.14,-101.19 1.71,-209.48 1.71,-324.87 2.28,-23.08 11.95,-40.39 29.02,-51.93 17.07,-11.54 35.84,-17.31 56.33,-17.31 20.48,0 38.69,5.77 54.63,17.31 15.93,11.54 25.03,28.85 27.3,51.93l0 1451.28c0,15.97 -6.26,29.29 -18.77,39.94 -12.52,10.65 -27.32,18.64 -44.38,23.97 -17.07,5.32 -34.14,6.65 -51.21,3.99 -17.08,-2.66 -30.16,-9.32 -47.8,-161.11zm-952.51 -1236.91l1.71 1335.44c0,24.85 -8.54,43.49 -25.61,55.92 -17.07,12.43 -36.41,18.2 -58.03,17.31 -21.63,-0.89 -40.97,-7.54 -58.04,-19.97 -17.07,-12.43 -25.6,-30.18 -25.6,-53.26l0 -1440.62c0,-17.76 6.25,-32.41 18.77,-43.94 12.52,-11.54 27.31,-18.2 44.38,-19.98 17.07,-1.77 34.71,0.45 52.92,6.66 18.21,6.21 34.14,17.31 49.5,162.44z"/>
    <path fill="#373435" fill-rule="nonzero" d="M11909.25 1860.97l16.95 1224.48c0.43,31.19 -14.13,53.67 -33.9,67.79 -19.77,14.13 -41.66,21.19 -65.67,21.19 -24.01,0 -47.31,-7.06 -69.91,-21.19 -22.6,-14.12 -35.31,-36.72 -38.13,-67.79l-16.95 -1216 -4.24 -190.66 -8.47 -749.94c-0.41,-36.72 10.59,-63.56 31.78,-80.51 21.18,-16.94 44.48,-25.42 69.9,-25.42 25.43,0 49.44,8.48 72.03,25.42 22.6,16.95 33.9,43.79 33.9,80.51l8.47 745.7 4.24 186.42z"/>
    <path fill="#373435" fill-rule="nonzero" d="M13493.86 1619.48c2.82,-36.72 14.83,-63.55 36.01,-80.5 21.18,-16.95 44.49,-25.42 69.91,-25.42 25.42,0 48.02,8.47 67.79,25.42 19.77,16.95 31.07,43.78 33.89,80.5 8.48,240.09 14.13,480.18 16.95,720.28 2.83,240.09 12.71,488.65 29.66,745.69 -2.82,28.25 -14.83,50.14 -36.01,65.67 -21.19,15.54 -43.78,23.31 -67.79,23.31 -24.01,0 -46.61,-7.07 -67.79,-21.19 -21.19,-14.12 -33.19,-36.72 -36.02,-67.79l-12.71 -207.61c-64.96,59.32 -144.76,101.69 -239.38,127.11 -94.63,25.42 -205.49,22.6 -332.6,-8.47 -76.26,-16.95 -141.23,-46.61 -194.9,-88.98 -53.66,-42.37 -97.45,-91.8 -131.34,-148.29 -33.9,-56.49 -58.61,-118.63 -74.15,-186.42 -15.53,-67.8 -20.48,-137 -14.83,-207.61 5.65,-81.92 23.31,-161.71 52.97,-239.39 29.65,-77.67 70.61,-146.88 122.87,-207.61 52.25,-60.72 115.8,-108.74 190.66,-144.05 74.85,-35.31 158.88,-52.96 252.09,-52.96 67.79,2.82 129.93,17.65 186.42,44.49 56.5,26.83 108.75,61.43 156.77,103.8 -2.82,-39.54 -4.94,-80.5 -6.36,-122.87 -1.41,-42.37 -2.11,-84.74 -2.11,-127.11zm-484.42 1173.62c56.49,22.6 111.57,28.96 166.65,19.07 54.37,-9.89 104.51,-30.36 149,-61.43 45.19,-31.08 84.73,-70.62 118.63,-118.64 33.19,-48.02 57.2,-98.86 71.32,-152.53l-8.47 -237.26c-22.6,-79.09 -56.49,-142.65 -103.1,-190.66 -46.61,-48.02 -97.45,-81.21 -153.94,-99.57 -55.79,-18.36 -114.4,-22.6 -175.13,-12.71 -60.02,9.88 -115.1,33.19 -163.82,69.91 -49.43,36.72 -89.68,88.27 -120.05,154.64 -31.07,66.38 -45.19,146.18 -42.37,239.39 2.83,81.91 24.72,158.88 64.97,230.91 40.95,72.03 106.63,124.99 196.31,158.88z"/>
    <path fill="#ED3237" d="M8017.16 1833.22c672.16,78.61 1027.48,846.8 1420.2,1533.57 818.45,-952.56 3084.12,-1818.2 4284.46,-2118.36 -866.87,133.62 -3023.2,628.97 -4272.53,1640.99 -321.51,-789.12 -816.23,-1231.79 -1455.99,-1384.4l23.86 328.2z"/>
   </g>
  </g>
 </g>
</svg>
