<?xml version="1.0" encoding="UTF-8"?>
<!DOCTYPE svg PUBLIC "-//W3C//DTD SVG 1.1//EN" "http://www.w3.org/Graphics/SVG/1.1/DTD/svg11.dtd">
<!-- Creator: CorelDRAW 2020 (64 Bit) -->
<svg xmlns="http://www.w3.org/2000/svg" xml:space="preserve" width="100mm" height="85mm" version="1.1" shape-rendering="geometricPrecision" text-rendering="geometricPrecision" image-rendering="optimizeQuality" fill-rule="evenodd" clip-rule="evenodd"
viewBox="0 0 10000 8500"
 xmlns:xlink="http://www.w3.org/1999/xlink"
 xmlns:xodm="http://www.corel.com/coreldraw/odm/2003">
 <g id="Camada_x0020_1">
  <metadata id="CorelCorpID_0Corel-Layer"/>
  <g id="_2895286472400">
   <g id="_1866721064288">
    <g id="_1472115826208">
     <g>
      <path fill="#ED3237" d="M2926.69 1047.14c0,-148.58 20.64,-167.96 168.59,-167.96 207.17,0 141.92,-49.76 377.31,416.49 91.69,181.61 95.66,292.2 340.9,292.2l1714.44 0c257.72,0 263.24,-109.26 359.13,-296.61 127.66,-249.42 160.9,-412.08 289.58,-412.08 164.26,0 251.86,-17.41 251.86,167.96l-0.04 1413.26c0.33,112.62 -71.29,119.26 -175.48,192.9l-516.05 433.52c-208.3,191.18 -417.72,422.06 -587.04,655.68 -98.66,-45.36 -75.29,-73.6 -173.93,-174.15 -61.81,-63.01 -103.08,-114.75 -155.04,-168.77 -145.25,-151.03 -394.26,-25.38 -340.29,192.62 15.74,63.61 488.42,656.35 610.06,681.52 156.17,32.3 288.04,-157.91 371.78,-280.72 59.92,-87.87 79.09,-91.81 155.27,-168.85 232.81,-235.43 331.52,-383.07 648.87,-648.57 53.51,-44.77 118.65,-93.39 157.4,-126.5l5.4 1403.78c0,146.82 -34.12,168.59 -183.27,168.59l-3299.8 -22.65c-48.35,-359.07 -19.65,-2976.12 -19.65,-3551.66zm962.27 128.43c-62.49,-71.91 -119.2,-191.39 -153.11,-297.73l1887.92 -0.74c-35.69,91.6 -105.81,227.65 -152.12,297.81l-1582.69 0.66zm581.2 -709.35c-269.08,-2.97 -1434.95,-29.88 -1604.64,27.24 -470.74,158.45 -351.17,741.12 -351.17,1295.06 0,548.32 0,1096.62 0,1644.93 0,429.38 -97.81,1253.78 172.46,1473.8 255.23,207.77 1090.72,126.53 1497.37,126.53 548.32,0 1096.62,0 1644.93,0 1291.48,0 975.05,-176.56 1016.15,-2276.09 115.96,-37.16 208.45,-97.95 348.07,-137.54 146.5,-41.54 280.89,-54.15 301.73,-210.81 19.46,-146.4 -103.48,-242.87 -249.54,-228.39 -144.04,14.29 -267.2,87.01 -401.62,119.08 0,-317.23 0,-634.47 0,-951.71 0.01,-326.16 23.11,-597.72 -186.77,-759.27 -314.71,-242.26 -1297.46,-86.4 -1771.57,-127.45 -2.21,-101.28 42.29,-419.94 -213.26,-410.84 -222.4,7.93 -194.29,219.31 -202.14,415.46z"/>
      <path fill="#ED3237" d="M3724.44 2244.66c-219.27,57.22 -211.71,330.45 -38.09,388.46 99,33.09 1921.52,29.8 2021.52,6.68 194.84,-45.04 201.1,-333.16 9.34,-390.58 -93.88,-28.11 -1924.58,-22.37 -1992.77,-4.56z"/>
     </g>
     <path fill="#ED3237" fill-rule="nonzero" d="M2561.54 7001.44l0 1347.41c0,27.76 -7.44,48.58 -22.31,62.46 -14.87,13.88 -31.73,20.32 -50.57,19.33 -18.83,-0.99 -35.69,-8.43 -50.56,-22.31 -14.87,-13.88 -22.31,-33.71 -22.31,-59.48l0 -1609.16c0,-19.83 5.45,-36.18 16.36,-49.07 10.91,-12.89 23.8,-20.33 38.67,-22.31 14.87,-1.99 30.24,0.49 46.1,7.43 15.86,6.94 29.75,19.34 41.64,37.18l823.92 1368.23c0,-118.98 0,-232.5 0,-340.57 0,-108.06 0,-216.13 0,-324.21 0,-108.07 0.49,-218.62 1.48,-331.64 1,-113.03 1.49,-233.99 1.49,-362.88 1.98,-25.78 10.41,-45.11 25.28,-58 14.88,-12.89 31.24,-19.34 49.08,-19.34 17.85,0 33.71,6.45 47.59,19.34 13.88,12.89 21.82,32.22 23.8,58l0 1621.05c0,17.84 -5.45,32.71 -16.36,44.61 -10.91,11.9 -23.8,20.82 -38.67,26.77 -14.87,5.95 -29.74,7.44 -44.61,4.46 -14.88,-2.97 -26.28,-10.41 -34.21,-22.3l-835.81 -1395zm1676.08 1380.12c-79.31,1.99 -148.22,-9.91 -207.71,-35.69 -58.99,-25.78 -108.07,-61.47 -146.74,-106.09 -38.17,-44.61 -66.43,-95.67 -84.27,-152.19 -17.85,-56.51 -26.77,-115.01 -26.77,-174.5 0,-59.49 9.91,-117.49 29.74,-173.01 19.83,-55.52 49.08,-105.58 87.25,-149.21 38.67,-43.62 86.26,-79.31 142.28,-106.08 56.51,-26.77 122.44,-41.15 197.3,-43.13 75.35,0 141.29,13.38 198.79,40.15 57.01,26.77 104.6,62.96 142.28,107.58 37.67,44.61 64.94,96.16 82.79,153.66 17.84,57.51 26.77,116.5 26.77,175.99 0,57.51 -9.42,114.02 -28.26,168.55 -18.84,54.53 -46.11,104.11 -82.79,147.73 -36.68,43.63 -82.79,79.32 -137.81,106.09 -55.53,26.77 -119.97,40.15 -192.85,40.15zm1.49 -139.79c49.57,0 92.7,-8.93 129.39,-26.77 36.68,-17.85 67.42,-42.14 92.21,-72.88 24.78,-30.73 43.12,-65.93 55.02,-105.59 11.9,-39.66 17.85,-80.31 17.85,-121.95 0,-41.64 -6.45,-82.29 -19.34,-121.95 -12.88,-39.66 -32.71,-74.86 -59.48,-105.59 -26.77,-30.73 -59.49,-55.02 -98.16,-72.87 -38.67,-17.84 -82.79,-26.77 -132.36,-26.77 -49.57,1.99 -93.2,12.89 -130.88,32.72 -37.67,19.83 -68.9,45.11 -93.69,75.84 -24.79,30.74 -43.62,65.44 -56.51,104.1 -12.89,38.67 -19.34,78.83 -19.34,120.47 1.99,81.3 29.75,154.17 83.29,218.62 53.54,64.44 130.87,98.65 232,102.62zm1011.3 -713.85l11.89 859.59c-1.98,21.81 -9.91,37.68 -23.79,47.59 -13.88,9.92 -29.25,14.88 -46.1,14.88 -16.86,0 -33.22,-4.96 -49.08,-14.88 -15.87,-9.91 -24.79,-25.78 -26.77,-47.59l-11.9 -853.65 -217.12 2.98c-23.8,0 -42.64,-6.45 -56.52,-19.34 -13.88,-12.88 -21.81,-27.26 -23.79,-43.12 -1.98,-15.87 2.97,-31.24 14.87,-46.11 11.9,-14.87 30.74,-22.31 56.51,-22.31l223.08 -5.94 -5.95 -526.48c0,-25.78 7.43,-44.61 22.31,-56.51 14.87,-11.9 31.23,-17.85 49.07,-17.85 17.85,0 34.71,5.95 50.57,17.85 15.86,11.9 23.79,30.73 23.79,56.51l5.95 523.5 249.85 -5.95c21.82,0 38.67,6.45 50.57,19.34 11.9,12.88 18.84,27.76 20.82,44.61 1.98,16.86 -1.98,32.22 -11.9,46.11 -9.91,13.88 -25.78,20.82 -47.59,20.82l-258.77 5.95zm1112.43 -169.55c1.98,-25.78 10.41,-44.61 25.28,-56.51 14.88,-11.9 31.24,-17.85 49.08,-17.85 17.85,0 33.71,5.95 47.59,17.85 13.88,11.9 21.82,30.73 23.8,56.51 5.95,168.55 9.91,337.09 11.9,505.64 1.98,168.56 8.92,343.05 20.82,523.5 -1.99,19.83 -10.41,35.2 -25.29,46.11 -14.87,10.9 -30.73,16.36 -47.59,16.36 -16.85,0 -32.72,-4.96 -47.59,-14.88 -14.87,-9.91 -23.3,-25.78 -25.28,-47.59l-8.92 -145.74c-45.61,41.64 -101.63,71.38 -168.06,89.23 -66.43,17.85 -144.26,15.86 -233.49,-5.95 -53.54,-11.9 -99.15,-32.72 -136.82,-62.46 -37.68,-29.75 -68.41,-64.45 -92.21,-104.11 -23.8,-39.66 -41.15,-83.28 -52.05,-130.87 -10.91,-47.59 -14.38,-96.18 -10.41,-145.75 3.96,-57.5 16.36,-113.52 37.18,-168.05 20.82,-54.52 49.57,-103.11 86.26,-145.74 36.68,-42.63 81.3,-76.34 133.84,-101.13 52.55,-24.79 111.55,-37.18 176.98,-37.18 47.59,1.98 91.22,12.39 130.88,31.23 39.66,18.84 76.34,43.13 110.05,72.87 -1.98,-27.76 -3.47,-56.51 -4.46,-86.25 -0.99,-29.75 -1.49,-59.49 -1.49,-89.24zm-340.07 823.91c39.66,15.86 78.32,20.32 116.99,13.38 38.17,-6.94 73.37,-21.31 104.6,-43.13 31.73,-21.81 59.49,-49.57 83.28,-83.28 23.3,-33.71 40.16,-69.4 50.07,-107.08l-5.95 -166.57c-15.86,-55.52 -39.65,-100.14 -72.37,-133.84 -32.72,-33.71 -68.41,-57.01 -108.07,-69.89 -39.17,-12.89 -80.31,-15.87 -122.95,-8.93 -42.13,6.94 -80.8,23.3 -115.01,49.08 -34.7,25.78 -62.96,61.96 -84.27,108.56 -21.81,46.6 -31.73,102.61 -29.75,168.05 1.99,57.51 17.35,111.54 45.61,162.11 28.75,50.56 74.86,87.74 137.82,111.54zm887.37 20.82c29.74,29.74 73.37,53.04 130.87,69.9 57.51,16.85 115.01,24.29 172.52,22.31 57.5,-1.99 108.07,-13.89 151.69,-35.7 43.63,-21.81 65.44,-56.51 65.44,-104.1 0,-43.63 -14.38,-77.34 -43.13,-101.13 -28.75,-23.8 -64.94,-43.13 -108.56,-58 -43.63,-14.88 -91.22,-27.76 -142.78,-38.67 -51.55,-10.91 -99.64,-25.28 -144.26,-43.13 -44.61,-17.85 -83.28,-41.64 -116,-71.39 -32.72,-29.74 -51.06,-71.38 -55.03,-124.92 -3.96,-55.51 3.97,-104.1 23.8,-145.74 19.83,-41.64 47.09,-76.84 81.8,-105.59 34.7,-28.75 74.36,-50.57 118.97,-65.44 44.62,-14.87 90.72,-24.29 138.31,-28.25 67.42,-3.97 130.88,7.43 190.37,34.2 59.48,26.77 105.09,62.96 136.82,108.57 11.9,17.84 15.86,35.19 11.9,52.05 -3.97,16.85 -12.4,30.24 -25.28,40.15 -12.89,9.92 -28.26,13.89 -46.11,11.9 -17.85,-1.98 -34.7,-11.9 -50.56,-29.74 -25.78,-27.76 -59.49,-49.08 -101.13,-63.95 -41.65,-14.87 -84.28,-20.33 -127.9,-16.36 -55.53,5.95 -104.11,23.3 -145.75,52.05 -41.64,28.75 -61.47,68.91 -59.49,120.46 0,33.71 15.37,58.99 46.1,75.84 31.24,16.86 69.9,32.23 117,46.11 46.6,13.88 96.67,27.76 149.22,41.64 53.04,13.88 101.62,33.21 146.73,58 44.62,24.79 81.3,57.5 110.55,98.16 28.76,40.65 42.14,94.68 40.16,162.1 -1.99,53.54 -18.35,99.15 -49.08,136.82 -31.23,37.68 -69.9,67.42 -116.5,89.24 -47.09,21.81 -99.15,36.68 -157.15,44.61 -57.5,7.94 -114.51,8.93 -171.52,2.98 -56.52,-5.95 -109.56,-18.34 -158.14,-37.18 -48.58,-18.84 -88.24,-44.12 -117.99,-75.85 -17.84,-17.85 -25.78,-37.68 -23.79,-59.49 1.98,-21.81 9.42,-40.15 22.31,-55.03 12.88,-14.87 29.24,-23.79 49.07,-26.77 19.83,-2.97 38.67,3.47 56.52,19.34z"/>
    </g>
   </g>
  </g>
 </g>
</svg>
