<?xml version="1.0" encoding="UTF-8"?>
<!DOCTYPE svg PUBLIC "-//W3C//DTD SVG 1.1//EN" "http://www.w3.org/Graphics/SVG/1.1/DTD/svg11.dtd">
<!-- Creator: CorelDRAW 2020 (64 Bit) -->
<svg xmlns="http://www.w3.org/2000/svg" xml:space="preserve" width="60mm" height="60mm" version="1.1" shape-rendering="geometricPrecision" text-rendering="geometricPrecision" image-rendering="optimizeQuality" fill-rule="evenodd" clip-rule="evenodd"
viewBox="0 0 6000 6000"
 xmlns:xlink="http://www.w3.org/1999/xlink"
 xmlns:xodm="http://www.corel.com/coreldraw/odm/2003">
 <g id="Camada_x0020_1">
  <metadata id="CorelCorpID_0Corel-Layer"/>
  <g id="_1472114564352">
   <path fill="#96989A" d="M926.25 1500.47c0,-148.58 20.64,-167.96 168.59,-167.96 207.17,0 141.92,-49.76 377.31,416.49 91.69,181.61 95.66,292.2 340.9,292.2l1714.45 0c257.72,0 263.24,-109.26 359.13,-296.61 127.66,-249.42 160.9,-412.08 289.58,-412.08 164.26,0 251.86,-17.41 251.86,167.96l-0.04 1413.26c0.33,112.62 -71.29,119.26 -175.48,192.91l-516.05 433.52c-208.3,191.18 -417.72,422.06 -587.04,655.68 -98.66,-45.36 -75.29,-73.6 -173.93,-174.15 -61.82,-63.01 -103.09,-114.75 -155.05,-168.77 -145.25,-151.03 -394.26,-25.38 -340.29,192.62 15.74,63.61 488.43,656.35 610.07,681.52 156.17,32.3 288.04,-157.91 371.78,-280.72 59.92,-87.87 79.09,-91.81 155.27,-168.85 232.81,-235.43 331.52,-383.07 648.87,-648.57 53.51,-44.77 118.65,-93.39 157.4,-126.5l5.4 1403.78c0,146.82 -34.12,168.59 -183.27,168.59l-3299.81 -22.65c-48.35,-359.07 -19.65,-2976.13 -19.65,-3551.67zm962.27 128.43c-62.49,-71.91 -119.2,-191.39 -153.11,-297.73l1887.93 -0.74c-35.69,91.6 -105.81,227.65 -152.12,297.81l-1582.7 0.66zm581.2 -709.35c-269.08,-2.97 -1434.95,-29.88 -1604.64,27.24 -470.74,158.45 -351.17,741.12 -351.17,1295.06 0,548.32 0,1096.63 0,1644.94 0,429.38 -97.81,1253.78 172.46,1473.8 255.23,207.77 1090.72,126.53 1497.37,126.53 548.32,0 1096.63,0 1644.94,0 1291.48,0 975.05,-176.56 1016.15,-2276.09 115.96,-37.16 208.45,-97.95 348.07,-137.54 146.5,-41.55 280.89,-54.16 301.73,-210.82 19.46,-146.4 -103.48,-242.87 -249.54,-228.39 -144.04,14.29 -267.2,87.01 -401.62,119.08 0,-317.23 0,-634.47 0,-951.71 0.01,-326.16 23.11,-597.72 -186.77,-759.27 -314.71,-242.26 -1297.46,-86.4 -1771.58,-127.45 -2.21,-101.28 42.29,-419.94 -213.26,-410.84 -222.4,7.93 -194.29,219.31 -202.14,415.46z"/>
   <path fill="#96989A" d="M1724 2697.99c-219.27,57.22 -211.71,330.45 -38.09,388.47 99,33.09 1921.53,29.8 2021.53,6.68 194.84,-45.04 201.1,-333.17 9.34,-390.59 -93.88,-28.11 -1924.59,-22.37 -1992.78,-4.56z"/>
  </g>
 </g>
</svg>
