<?xml version="1.0" encoding="UTF-8"?>
<!DOCTYPE svg PUBLIC "-//W3C//DTD SVG 1.1//EN" "http://www.w3.org/Graphics/SVG/1.1/DTD/svg11.dtd">
<!-- Creator: CorelDRAW 2020 (64 Bit) -->
<svg xmlns="http://www.w3.org/2000/svg" xml:space="preserve" width="35mm" height="35mm" version="1.1" shape-rendering="geometricPrecision" text-rendering="geometricPrecision" image-rendering="optimizeQuality" fill-rule="evenodd" clip-rule="evenodd"
viewBox="0 0 3500 3500"
 xmlns:xlink="http://www.w3.org/1999/xlink"
 xmlns:xodm="http://www.corel.com/coreldraw/odm/2003">
 <g id="Camada_x0020_1">
  <metadata id="CorelCorpID_0Corel-Layer"/>
  <path fill="#ED3237" d="M1547.5 2950.2l400 0c-22.93,275.54 -394.42,250.75 -400,0zm100 -2387.5c0,-65.67 -18.04,-219.38 105.05,-210.98 24.4,1.66 57.12,18.24 71.15,34.78 31.51,37.14 23.8,122.27 23.8,176.2 95.88,0 219.63,54.22 285.45,89.55l112.71 74.79c50.24,42.46 101.3,92.75 141.19,146.31 108,144.99 161.1,313.6 160.66,508.09 -0.58,252.06 -0.01,504.19 -0.01,756.26 0,231.19 -19.52,316.77 70.76,497.99 30.67,61.58 51.36,72.88 79.24,114.51l-1900 0c51.48,-76.88 98,-112.73 131.39,-243.6 26.37,-103.35 18.61,-233.51 18.61,-362.65 0,-254.15 0.57,-508.37 -0.01,-762.51 -0.43,-188.36 51.43,-359.41 155.28,-500.97 67.69,-92.27 154.31,-169.85 255.22,-226.03 65.47,-36.45 192.78,-91.74 289.51,-91.74zm-193.75 -168.75c-148.47,34.59 -307.98,142.35 -414.07,248.44 -127.11,127.11 -194.62,249.33 -250.86,417.88 -42.92,128.6 -41.32,235.38 -41.32,402.43 0,292.25 8.52,597.07 0.2,887.71 -3.79,132.56 -58.23,219.86 -142.25,301.49 -110.3,107.16 -257.95,56.59 -257.95,210.8 0,41.33 46.16,87.5 87.5,87.5l912.5 0c0,226.34 187.17,400 375,400l50 0c187.66,0 375,-173.97 375,-400l912.5 0c81.79,0 158.04,-159.79 -19.47,-218.03 -56.85,-18.66 -108.54,-40.39 -147.82,-77.18 -86.47,-80.97 -138.53,-167.91 -145.25,-298.5 -7.2,-139.85 0.04,-301.51 0.04,-443.79 0,-147.92 0,-295.83 0,-443.75 0,-165.93 2.35,-275.78 -39.77,-403.98 -73.76,-224.45 -182.54,-382.83 -366.48,-521.03 -71.64,-53.82 -199.71,-126.62 -300,-149.99 -2.49,-111.77 -142.19,-243.75 -268.75,-243.75 -98.64,0 -148.94,9.38 -229.49,76.76 -33.8,28.27 -87.97,109.1 -89.26,166.99z"/>
 </g>
</svg>
