<?xml version="1.0" encoding="UTF-8"?>
<!DOCTYPE svg PUBLIC "-//W3C//DTD SVG 1.1//EN" "http://www.w3.org/Graphics/SVG/1.1/DTD/svg11.dtd">
<!-- Creator: CorelDRAW 2020 (64 Bit) -->
<svg xmlns="http://www.w3.org/2000/svg" xml:space="preserve" width="35mm" height="35mm" version="1.1" shape-rendering="geometricPrecision" text-rendering="geometricPrecision" image-rendering="optimizeQuality" fill-rule="evenodd" clip-rule="evenodd"
viewBox="0 0 3500 3500"
 xmlns:xlink="http://www.w3.org/1999/xlink"
 xmlns:xodm="http://www.corel.com/coreldraw/odm/2003">
 <g id="Camada_x0020_1">
  <metadata id="CorelCorpID_0Corel-Layer"/>
  <g id="_1472082796944">
   <path fill="#96989A" d="M1379.05 955.98c311.42,-43.17 585.28,175.96 627.79,477.03 23.69,167.79 -40.04,337.27 -123.79,428.99l-68.67 69.77c-74.1,67.43 -182.87,114.01 -287.38,127.79 -327.56,43.17 -587.54,-197.45 -624.39,-476.54 -43.59,-330.04 193.91,-587.87 476.44,-627.04zm863.91 1006.54c11.64,-26.44 25.35,-46.1 37.06,-72.47 298.42,-672.32 -241.62,-1365.46 -931.86,-1285.84 -202.45,23.36 -420.84,130.15 -554.38,276.03 -294.79,322.05 -336.07,776.14 -80.85,1153.67 16.57,24.51 27.85,35.97 45.19,57.22 106.57,130.62 284.52,262.34 521.74,308.82 121.21,23.75 250.72,22.25 372.84,-4.96 186.55,-41.56 223.04,-93.59 297,-121.84 14.43,44.59 117.37,124.76 156.43,156.25l379.35 338.02c18.75,17.32 35.41,33.03 54.81,47.76 57.1,43.33 103.06,111.54 213.64,86.82 79.49,-17.77 184.26,-134.15 194.78,-213.8 8.3,-62.74 -18.45,-118.54 -48.89,-150.46l-271.09 -241.4c-19.61,-15.75 -35.45,-32.02 -54.93,-47.67l-162.17 -145.21c-21.14,-16.33 -34.71,-31.99 -55.17,-47.38l-54.8 -47.85c-11.84,-10.28 -14.04,-14.89 -27.14,-23.99 -3.19,-2.22 -10.24,-6.42 -15.54,-9.98l-16.02 -11.74z"/>
  </g>
 </g>
</svg>
