<?xml version="1.0" encoding="UTF-8"?>
<!DOCTYPE svg PUBLIC "-//W3C//DTD SVG 1.1//EN" "http://www.w3.org/Graphics/SVG/1.1/DTD/svg11.dtd">
<!-- Creator: CorelDRAW 2020 (64 Bit) -->
<svg xmlns="http://www.w3.org/2000/svg" xml:space="preserve" width="60mm" height="60mm" version="1.1" shape-rendering="geometricPrecision" text-rendering="geometricPrecision" image-rendering="optimizeQuality" fill-rule="evenodd" clip-rule="evenodd"
viewBox="0 0 6000 6000"
 xmlns:xlink="http://www.w3.org/1999/xlink"
 xmlns:xodm="http://www.corel.com/coreldraw/odm/2003">
 <g id="Camada_x0020_1">
  <metadata id="CorelCorpID_0Corel-Layer"/>
  <g id="_1472127230688">
   <polygon fill="#96989A" points="494.33,3826.43 708.03,3826.25 708.62,4965.76 3561.87,4967.1 3561.89,3826.2 3775.8,3826.33 3775.7,3539.99 495.1,3540.61 "/>
   <path fill="#96989A" d="M2978.06 3397.86l940.16 -0.07 -0.04 569.6 -212.4 0.98 -1.57 569.67 713.89 1.14 0.02 -1138.65c26.61,-7.54 173.6,-2.72 212.7,-2.71l1.31 -285.41 -1660.72 0c9.53,94.32 -3.29,197.18 6.65,285.45z"/>
   <path fill="#96989A" d="M3830.02 2702.96l-0.12 20.3c12.43,15.63 5.52,209.34 5.39,245.45l928.35 -0.82c22.03,2.75 1.12,-0.83 11.11,3.66l-0.44 569.23 -213.55 -0.23 -0.82 570.99 713.68 -0.42 0.67 -1137.09c6.92,-6.27 -9.79,-5.28 12.63,-5.72l200.17 0.68 -0.03 -282.24 -1657.99 -0.5 0.95 16.71z"/>
   <path fill="#96989A" d="M1436.84 3398.37l1397.43 -0.62c11.11,-158.49 12.73,-324.44 -82.13,-446.52 -52.03,-66.97 -138.12,-117.72 -227.71,-128.42 -27.41,-3.28 -55.67,-2.49 -83.71,-2.69 -43.94,-0.31 -37.59,2.55 -70.91,19.45 -26.98,13.69 -225.3,125.33 -233.32,125.98 -12.31,0.98 -199.81,-107.44 -230.17,-122.97 -20.54,-10.51 -34.75,-22.45 -63.44,-22.6 -91.2,-0.49 -140.4,-0.12 -222.63,44.22 -66.3,35.76 -131.73,109.09 -162.19,194.25 -26.76,74.81 -29.42,253.78 -21.22,339.92z"/>
   <path fill="#96989A" d="M2442.24 2677.37c68.5,4.56 107.14,-0.84 173.35,18.81 51.78,15.37 96.97,37.38 135.18,62.94 55.41,37.07 109.36,92.04 143.49,146.76 11.99,19.22 22.53,45.36 36.51,64.36l757.95 -0.07c6.41,-27.79 3.87,-199.59 1.02,-235.66 -9.94,-125.75 -77.17,-239.5 -184.55,-298.77 -65.27,-36.03 -111.82,-43.14 -197.78,-43.37 -56.35,-0.14 -51.76,1.57 -93.15,25 -26.35,14.92 -50.92,29.07 -79.42,43.6l-116.85 63.63c-19.61,11.8 -21.06,17.67 -43.16,6.48l-233.43 -127.81c-29.05,-16.97 -74.52,-13.01 -109.93,-9.99 -12.42,28.07 -19.35,58.18 -32.02,86.59 -49.73,111.55 -98,135.22 -157.21,197.5z"/>
   <path fill="#96989A" d="M3297.56 2250.74c191.26,-10.48 359.9,78.49 451.95,226.69 10.68,17.21 26.21,50.07 37.39,63.77l759.89 -0.04c0.08,-156.09 18.38,-285.83 -56.76,-408.3 -52.89,-86.22 -149.64,-168.66 -302.83,-168.66 -102.97,0 -84.62,7.24 -213.32,77.85l-110.6 61.21c-21.39,11.89 -19.73,6.07 -41.83,-5.66l-224.55 -122.95c-27.92,-16.78 -74.26,-11.26 -111.04,-9.75 -47.3,193.54 -175.69,263.3 -188.3,285.84z"/>
   <path fill="#96989A" d="M2099.04 1902.08c-204.31,21.92 -351.62,198.59 -330.09,405.57 19.69,189.22 192.13,351.32 405.5,326.77 186.58,-21.47 350.92,-187 326.69,-405.2 -21.15,-190.46 -188.86,-350.01 -402.1,-327.14z"/>
   <path fill="#96989A" d="M2943.93 1475.6c-187.38,25.81 -348.45,192.16 -317.34,417.77 25.58,185.52 200.59,343.18 419.34,311 183.09,-26.94 338.13,-196.66 309.89,-415.03 -23.87,-184.62 -198.62,-343.12 -411.89,-313.74z"/>
   <path fill="#96989A" d="M3792.48 1048.75c-184.48,28.39 -342.15,197.3 -309.37,419.41 27.2,184.32 203.19,340.98 418.96,308.32 182.08,-27.57 342.69,-199.17 308.89,-420.94 -27.9,-183.08 -201.12,-340.23 -418.48,-306.79z"/>
   <path fill="#96989A" d="M3830.02 2702.96l-0.95 -16.71 1657.99 0.5 0.03 282.24 -200.17 -0.68c-22.42,0.44 -5.71,-0.55 -12.63,5.72l214.28 -1.37c7.62,-28.5 8.02,-266.06 -0.85,-289.21 -42.83,-4.79 -766.31,-1.03 -829.84,-1.03 -91.65,0 -808.87,-7.5 -831.88,3.88l4.02 16.66z"/>
   <path fill="#96989A" d="M4774.75 2971.55c-9.99,-4.49 10.92,-0.91 -11.11,-3.66l-928.35 0.82c0.13,-36.11 7.04,-229.82 -5.39,-245.45l1.42 246.92 943.43 1.37z"/>
  </g>
 </g>
</svg>
