<?xml version="1.0" encoding="UTF-8"?>
<!DOCTYPE svg PUBLIC "-//W3C//DTD SVG 1.1//EN" "http://www.w3.org/Graphics/SVG/1.1/DTD/svg11.dtd">
<!-- Creator: CorelDRAW 2020 (64 Bit) -->
<svg xmlns="http://www.w3.org/2000/svg" xml:space="preserve" width="100mm" height="85mm" version="1.1" shape-rendering="geometricPrecision" text-rendering="geometricPrecision" image-rendering="optimizeQuality" fill-rule="evenodd" clip-rule="evenodd"
viewBox="0 0 10000 8500"
 xmlns:xlink="http://www.w3.org/1999/xlink"
 xmlns:xodm="http://www.corel.com/coreldraw/odm/2003">
 <g id="Camada_x0020_1">
  <metadata id="CorelCorpID_0Corel-Layer"/>
  <g id="_2895444652352">
   <g id="_1866717223392">
    <g id="_1472084863392">
     <g>
      <polygon fill="#ED3237" points="2497.1,3101.76 2710.8,3101.58 2711.39,4241.08 5564.63,4242.42 5564.65,3101.53 5778.55,3101.66 5778.45,2815.32 2497.87,2815.94 "/>
      <path fill="#ED3237" d="M4980.82 2673.19l940.15 -0.07 -0.04 569.6 -212.4 0.98 -1.57 569.66 713.89 1.14 0.02 -1138.64c26.61,-7.54 173.6,-2.72 212.7,-2.71l1.31 -285.41 -1660.71 0c9.53,94.32 -3.29,197.18 6.65,285.45z"/>
      <path fill="#ED3237" d="M5832.77 1978.29l-0.12 20.3c12.43,15.63 5.52,209.34 5.39,245.45l928.35 -0.82c22.03,2.75 1.12,-0.83 11.11,3.66l-0.44 569.23 -213.55 -0.23 -0.82 570.99 713.68 -0.42 0.67 -1137.09c6.92,-6.27 -9.79,-5.28 12.63,-5.72l200.17 0.68 -0.03 -282.24 -1657.99 -0.5 0.95 16.71z"/>
      <path fill="#ED3237" d="M3439.61 2673.7l1397.43 -0.62c11.11,-158.49 12.73,-324.44 -82.13,-446.52 -52.03,-66.97 -138.12,-117.72 -227.71,-128.42 -27.41,-3.28 -55.67,-2.49 -83.71,-2.69 -43.94,-0.31 -37.59,2.55 -70.91,19.45 -26.98,13.69 -225.3,125.33 -233.32,125.98 -12.31,0.98 -199.81,-107.44 -230.17,-122.97 -20.54,-10.51 -34.75,-22.45 -63.44,-22.6 -91.2,-0.49 -140.4,-0.12 -222.63,44.22 -66.3,35.76 -131.73,109.09 -162.19,194.25 -26.76,74.81 -29.42,253.78 -21.22,339.92z"/>
      <path fill="#ED3237" d="M4445.01 1952.7c68.5,4.56 107.14,-0.84 173.35,18.81 51.78,15.37 96.97,37.38 135.18,62.94 55.41,37.07 109.36,92.04 143.49,146.76 11.99,19.22 22.53,45.36 36.51,64.36l757.93 -0.07c6.41,-27.79 3.87,-199.59 1.02,-235.66 -9.94,-125.75 -77.17,-239.5 -184.54,-298.77 -65.27,-36.03 -111.82,-43.14 -197.78,-43.37 -56.35,-0.14 -51.76,1.57 -93.15,25 -26.35,14.92 -50.92,29.07 -79.42,43.6l-116.85 63.63c-19.61,11.8 -21.06,17.67 -43.16,6.48l-233.42 -127.81c-29.05,-16.97 -74.52,-13.01 -109.93,-9.99 -12.42,28.07 -19.35,58.18 -32.02,86.59 -49.73,111.55 -98,135.22 -157.21,197.5z"/>
      <path fill="#ED3237" d="M5300.32 1526.07c191.26,-10.48 359.89,78.49 451.94,226.69 10.68,17.21 26.21,50.07 37.39,63.77l759.89 -0.04c0.08,-156.09 18.38,-285.83 -56.76,-408.3 -52.89,-86.22 -149.64,-168.66 -302.83,-168.66 -102.97,0 -84.62,7.24 -213.32,77.85l-110.6 61.21c-21.39,11.89 -19.73,6.07 -41.83,-5.66l-224.54 -122.95c-27.92,-16.78 -74.26,-11.26 -111.04,-9.75 -47.3,193.54 -175.69,263.3 -188.3,285.84z"/>
      <path fill="#ED3237" d="M4101.81 1177.41c-204.31,21.92 -351.62,198.59 -330.09,405.57 19.69,189.22 192.13,351.32 405.5,326.77 186.58,-21.47 350.92,-187 326.69,-405.2 -21.15,-190.46 -188.86,-350.01 -402.1,-327.14z"/>
      <path fill="#ED3237" d="M4946.7 750.93c-187.38,25.81 -348.45,192.16 -317.34,417.77 25.58,185.52 200.59,343.18 419.33,311 183.09,-26.94 338.13,-196.66 309.89,-415.03 -23.87,-184.62 -198.62,-343.12 -411.88,-313.74z"/>
      <path fill="#ED3237" d="M5795.23 324.08c-184.48,28.39 -342.14,197.3 -309.36,419.41 27.2,184.32 203.18,340.98 418.95,308.32 182.08,-27.57 342.69,-199.17 308.89,-420.94 -27.9,-183.08 -201.12,-340.23 -418.48,-306.79z"/>
      <path fill="#ED3237" d="M5832.77 1978.29l-0.95 -16.71 1657.99 0.5 0.03 282.24 -200.17 -0.68c-22.42,0.44 -5.71,-0.55 -12.63,5.72l214.28 -1.37c7.62,-28.5 8.02,-266.06 -0.85,-289.21 -42.83,-4.79 -766.31,-1.03 -829.84,-1.03 -91.65,0 -808.87,-7.5 -831.88,3.88l4.02 16.66z"/>
      <path fill="#ED3237" d="M6777.5 2246.88c-9.99,-4.49 10.92,-0.91 -11.11,-3.66l-928.35 0.82c0.13,-36.11 7.04,-229.82 -5.39,-245.45l1.42 246.92 943.43 1.37z"/>
     </g>
     <path fill="#ED3237" fill-rule="nonzero" d="M2613.59 6405.25c23.8,0 40.65,7.44 50.57,22.31 9.91,14.87 14.87,31.73 14.87,50.56 0,18.84 -5.95,35.7 -17.85,50.57 -11.89,14.87 -28.75,22.31 -50.56,22.31l-392.63 2.97 -14.87 1531.83c0,25.78 -7.43,46.1 -22.8,60.97 -15.37,14.87 -31.73,23.3 -50.07,25.29 -18.34,1.98 -34.7,-2.48 -50.07,-13.39 -15.37,-10.91 -22.8,-29.25 -22.8,-55.03l11.89 -1549.67 -386.67 2.98c-25.78,-1.99 -44.62,-10.91 -56.51,-26.77 -11.9,-15.87 -17.85,-32.72 -17.85,-50.57 0,-17.85 6.94,-34.21 20.82,-49.08 13.88,-14.87 32.72,-22.31 56.51,-22.31l928.02 -2.97zm975.62 767.4c1.98,93.2 3.47,168.55 4.46,226.06 0.99,57.5 1.98,105.59 2.97,144.26 0.99,38.66 1.49,73.36 1.49,104.1 0,30.74 0,64.94 0,102.62 0,37.67 0.49,83.78 1.49,138.31 0.99,54.53 1.48,126.41 1.48,215.64 0,23.8 -7.93,41.65 -23.79,53.54 -15.87,11.9 -33.22,17.85 -52.05,17.85 -18.84,0 -36.19,-5.45 -52.06,-16.36 -15.86,-10.91 -23.79,-27.27 -23.79,-49.08l0 -151.69c-35.7,55.52 -80.31,99.14 -133.85,130.87 -53.54,31.73 -118.98,47.59 -196.31,47.59 -67.42,1.99 -124.93,-10.41 -172.52,-37.18 -47.59,-26.77 -86.26,-63.45 -116,-110.05 -29.75,-46.6 -52.55,-101.13 -68.41,-163.59 -15.87,-62.47 -27.76,-128.9 -35.7,-199.29 -7.93,-70.4 -12.39,-142.28 -13.38,-215.65 -0.99,-73.37 -1.49,-144.75 -1.49,-214.15 0,-21.82 7.44,-38.67 22.31,-50.57 14.87,-11.9 31.23,-18.34 49.08,-19.33 17.84,-0.99 34.7,3.96 50.56,14.87 15.87,10.91 23.8,28.26 23.8,52.05 1.98,87.25 3.96,177.97 5.95,272.16 1.98,94.19 10.41,181.44 25.28,261.75 14.87,80.31 40.65,146.24 77.33,197.8 36.69,51.56 90.72,77.33 162.11,77.33 111.05,0 190.36,-60.48 237.95,-181.44 47.59,-120.96 72.38,-291.49 74.36,-511.6l0 -124.92c0,-21.81 7.44,-38.67 22.31,-50.57 14.87,-11.89 31.23,-18.84 49.08,-20.82 17.85,-1.98 34.7,1.98 50.57,11.9 15.86,9.91 24.78,25.78 26.77,47.59zm309.33 -38.67c0,-25.78 7.44,-44.61 21.81,-56.51 14.38,-11.9 31.23,-17.85 49.58,-17.85 18.34,0 35.19,5.95 49.57,17.85 14.38,11.9 21.81,30.73 21.81,56.51l0 136.83c31.73,-29.75 67.92,-53.05 108.57,-69.9 40.65,-16.86 81.8,-25.29 123.44,-25.29 41.64,0 82.79,9.92 123.44,29.75 40.65,19.83 75.84,50.56 105.59,92.21 13.88,21.81 19.83,42.63 17.84,62.46 -1.98,19.83 -8.92,35.2 -20.82,46.1 -11.89,10.91 -27.26,15.37 -46.1,13.39 -18.84,-1.99 -37.18,-13.88 -55.03,-35.7 -43.62,-55.52 -96.17,-79.81 -157.64,-72.87 -61.47,6.94 -111.05,45.11 -148.72,114.52 -15.87,33.71 -27.27,73.36 -34.21,118.97 -6.94,45.61 -11.4,94.19 -13.38,145.75l2.97 407.49c0,21.82 -7.93,37.68 -23.3,47.6 -15.86,9.91 -32.22,14.87 -49.57,14.87 -17.35,0 -34.21,-4.96 -49.57,-14.87 -15.37,-9.92 -23.3,-25.78 -23.3,-47.6l-2.98 -963.71zm960.74 220.11c35.69,-69.4 80.81,-126.91 135.33,-172.52 54.53,-45.6 123.44,-69.4 206.72,-71.38 51.56,0 96.17,11.9 133.85,35.69 37.67,23.8 69.9,54.53 96.67,92.21 26.77,37.67 49.07,79.81 66.92,126.41 17.85,46.6 32.72,91.71 44.62,135.34 7.93,-31.73 21.31,-68.91 40.15,-111.54 18.84,-42.64 42.63,-83.29 71.38,-121.96 28.75,-38.66 62.46,-71.88 101.13,-99.64 38.67,-27.76 80.8,-41.64 126.41,-41.64 65.44,-1.98 120.96,10.41 166.57,37.18 45.61,26.77 83.28,63.95 113.03,111.54 29.74,47.59 53.04,103.61 69.9,168.06 16.85,64.44 29.74,132.85 38.66,205.23 8.93,72.38 14.38,146.74 16.36,223.08 1.99,76.35 2.98,151.2 2.98,224.57 0,21.81 -7.44,37.68 -22.31,47.59 -14.87,9.92 -31.73,14.87 -50.57,14.87 -18.83,0 -35.69,-4.95 -50.56,-14.87 -14.87,-9.91 -22.31,-25.78 -22.31,-47.59 -1.98,-89.23 -4.46,-182.93 -7.44,-281.08 -2.97,-98.16 -11.89,-187.89 -26.77,-269.19 -14.87,-81.3 -38.17,-148.72 -69.89,-202.26 -31.73,-53.54 -77.34,-79.32 -136.83,-77.33 -51.55,1.98 -96.17,24.78 -133.85,68.41 -37.67,43.62 -68.9,103.11 -93.69,178.46 -24.79,75.36 -42.14,164.59 -52.05,267.7 -9.92,103.12 -11.9,214.16 -5.95,333.14 0,17.84 -7.44,32.22 -22.3,43.13 -14.87,10.9 -31.23,17.35 -49.08,19.33 -17.84,1.98 -34.7,-2.48 -50.56,-13.39 -15.87,-10.9 -23.8,-28.25 -23.8,-52.05 -5.95,-97.16 -12.39,-196.8 -19.33,-298.93 -6.94,-102.12 -19.34,-194.82 -37.18,-278.1 -17.85,-83.29 -43.63,-151.2 -77.34,-203.75 -33.71,-52.55 -80.31,-77.83 -139.8,-75.85 -49.57,0 -91.71,15.86 -126.41,47.59 -34.7,31.73 -63.45,72.87 -86.26,123.44 -22.79,50.56 -40.14,107.57 -52.04,171.03 -11.9,63.45 -20.82,127.9 -26.77,193.34 -5.95,65.43 -9.42,128.39 -10.41,188.87 -0.99,60.48 -1.49,112.53 -1.49,156.16 -3.96,15.86 -13.88,27.76 -29.74,35.69 -15.86,7.93 -32.72,11.9 -50.57,11.9 -17.84,0 -34.2,-3.97 -49.07,-11.9 -14.88,-7.93 -22.31,-19.83 -22.31,-35.69 -11.9,-146.74 -18.84,-303.39 -20.82,-469.96 -1.99,-166.57 -7.93,-337.1 -17.85,-511.6 1.98,-25.78 10.41,-44.62 25.28,-56.51 14.88,-11.9 31.23,-17.85 49.08,-17.85 17.85,0 33.71,5.95 47.59,17.85 13.88,11.89 21.81,30.73 23.8,56.51l8.92 202.26zm2311.1 -273.65c1.98,-25.78 10.41,-44.61 25.28,-56.51 14.88,-11.9 31.24,-17.85 49.08,-17.85 17.85,0 33.71,5.95 47.59,17.85 13.88,11.9 21.82,30.73 23.8,56.51 5.95,168.55 9.91,337.1 11.9,505.65 1.98,168.56 8.92,343.05 20.82,523.5 -1.99,19.83 -10.41,35.2 -25.29,46.11 -14.87,10.9 -30.73,16.36 -47.59,16.36 -16.85,0 -32.72,-4.96 -47.59,-14.88 -14.87,-9.91 -23.3,-25.78 -25.28,-47.59l-8.92 -145.74c-45.61,41.64 -101.63,71.38 -168.06,89.23 -66.43,17.85 -144.26,15.86 -233.49,-5.95 -53.54,-11.9 -99.15,-32.72 -136.82,-62.46 -37.68,-29.75 -68.41,-64.45 -92.21,-104.11 -23.8,-39.66 -41.15,-83.28 -52.05,-130.87 -10.91,-47.59 -14.38,-96.18 -10.41,-145.75 3.96,-57.5 16.36,-113.52 37.18,-168.05 20.82,-54.53 49.57,-103.12 86.26,-145.75 36.68,-42.63 81.3,-76.34 133.84,-101.13 52.55,-24.79 111.55,-37.18 176.98,-37.18 47.59,1.98 91.22,12.39 130.88,31.23 39.66,18.84 76.34,43.13 110.05,72.87 -1.98,-27.76 -3.47,-56.51 -4.46,-86.25 -0.99,-29.75 -1.49,-59.49 -1.49,-89.24zm-340.07 823.92c39.66,15.86 78.32,20.32 116.99,13.38 38.17,-6.94 73.37,-21.31 104.6,-43.13 31.73,-21.81 59.49,-49.57 83.28,-83.28 23.3,-33.71 40.16,-69.4 50.07,-107.08l-5.95 -166.57c-15.86,-55.52 -39.65,-100.14 -72.37,-133.85 -32.72,-33.71 -68.41,-57.01 -108.07,-69.89 -39.17,-12.89 -80.31,-15.87 -122.95,-8.93 -42.13,6.94 -80.8,23.3 -115.01,49.08 -34.7,25.78 -62.96,61.97 -84.27,108.57 -21.81,46.6 -31.73,102.61 -29.75,168.05 1.99,57.51 17.35,111.54 45.61,162.11 28.75,50.56 74.86,87.74 137.82,111.54zm887.37 20.82c29.74,29.74 73.37,53.04 130.87,69.9 57.51,16.85 115.01,24.29 172.52,22.31 57.5,-1.99 108.07,-13.89 151.69,-35.7 43.63,-21.81 65.44,-56.51 65.44,-104.1 0,-43.63 -14.38,-77.34 -43.13,-101.13 -28.75,-23.8 -64.94,-43.13 -108.56,-58 -43.63,-14.88 -91.22,-27.76 -142.78,-38.67 -51.55,-10.91 -99.64,-25.28 -144.26,-43.13 -44.61,-17.85 -83.28,-41.64 -116,-71.39 -32.72,-29.74 -51.06,-71.38 -55.03,-124.92 -3.96,-55.52 3.97,-104.11 23.8,-145.75 19.83,-41.64 47.09,-76.84 81.8,-105.59 34.7,-28.75 74.36,-50.57 118.97,-65.44 44.62,-14.87 90.72,-24.29 138.31,-28.25 67.42,-3.97 130.88,7.43 190.37,34.2 59.48,26.77 105.09,62.96 136.82,108.57 11.9,17.84 15.86,35.19 11.9,52.05 -3.97,16.85 -12.4,30.24 -25.28,40.15 -12.89,9.92 -28.26,13.89 -46.11,11.9 -17.85,-1.98 -34.7,-11.9 -50.56,-29.74 -25.78,-27.76 -59.49,-49.08 -101.13,-63.95 -41.65,-14.87 -84.28,-20.33 -127.9,-16.36 -55.53,5.95 -104.11,23.3 -145.75,52.05 -41.64,28.75 -61.47,68.91 -59.49,120.47 0,33.71 15.37,58.99 46.1,75.84 31.24,16.86 69.9,32.23 117,46.11 46.6,13.88 96.67,27.76 149.22,41.64 53.04,13.88 101.62,33.21 146.73,58 44.62,24.79 81.3,57.5 110.55,98.16 28.76,40.65 42.14,94.68 40.16,162.1 -1.99,53.54 -18.35,99.15 -49.08,136.82 -31.23,37.68 -69.9,67.42 -116.5,89.24 -47.09,21.81 -99.15,36.68 -157.15,44.61 -57.5,7.94 -114.51,8.93 -171.52,2.98 -56.52,-5.95 -109.56,-18.34 -158.14,-37.18 -48.58,-18.84 -88.24,-44.12 -117.99,-75.85 -17.84,-17.85 -25.78,-37.68 -23.79,-59.49 1.98,-21.81 9.42,-40.15 22.31,-55.03 12.88,-14.87 29.24,-23.79 49.07,-26.77 19.83,-2.97 38.67,3.47 56.52,19.34z"/>
    </g>
   </g>
  </g>
 </g>
</svg>
